<svg xmlns="http://www.w3.org/2000/svg" viewBox="0 0 459.01 512"><defs><style>.cls-1{fill:#b9b9b9;}.cls-2{fill:#f2f2f2;}.cls-3{fill:#a7a7a7;}.cls-4{fill:#c8c8c8;}.cls-5{fill:#eaeaea;}.cls-6{fill:#5e5e5e;}.cls-7{fill:#535353;}.cls-8{fill:#5f5f5f;}.cls-9{fill:#545454;}.cls-10{fill:#494949;}</style></defs><title>no-image-admin</title><g id="Слой_2" data-name="Слой 2"><g id="Layer_1" data-name="Layer 1"><polygon class="cls-1" points="308.95 361.94 308.95 300.15 150.06 300.15 150.06 361.94 229.51 432.56 308.95 361.94"/><path class="cls-2" d="M431.79,390.84l-109.23-25.7A17.53,17.53,0,0,1,318,363.3L229.51,414.9l-85-54.1a17.59,17.59,0,0,1-8,4.34L27.22,390.84A35.31,35.31,0,0,0,0,425.21v69.13A17.65,17.65,0,0,0,17.65,512h423.7A17.65,17.65,0,0,0,459,494.35V425.21A35.3,35.3,0,0,0,431.79,390.84Z"/><path class="cls-3" d="M150.06,300.15v65.19C250.14,401.4,309,311.16,309,311.16v-11H150.06Z"/><path class="cls-4" d="M114.75,97.13l7.69,169.23a53,53,0,0,0,21.13,40l36.5,27.37a53,53,0,0,0,31.78,10.59h35.31a53,53,0,0,0,31.78-10.59l36.5-27.37a53,53,0,0,0,21.13-40l7.69-169.23Z"/><path class="cls-1" d="M203,132.43c35.31,0,88.27-8.83,100.83-35.31H114.75l7.69,169.23a53,53,0,0,0,21.13,40l36.5,27.37a53,53,0,0,0,31.78,10.59h17.65c-17.65,0-53-35.31-53-79.44V158.92C176.54,150.09,185.37,132.43,203,132.43Z"/><path class="cls-5" d="M64.81,454.71,7.61,403.33A35.25,35.25,0,0,0,0,425.21v69.13A17.65,17.65,0,0,0,17.66,512H79.45V487.55A44.14,44.14,0,0,0,64.81,454.71Z"/><path class="cls-5" d="M394.21,454.71l57.2-51.38a35.25,35.25,0,0,1,7.6,21.88v69.13A17.65,17.65,0,0,1,441.36,512H379.57V487.55A44.13,44.13,0,0,1,394.21,454.71Z"/><polygon class="cls-6" points="251.57 512 207.44 512 212.96 432.56 246.06 432.56 251.57 512"/><path class="cls-7" d="M251.58,414.9H207.44v16.61a9.87,9.87,0,0,0,9.87,9.87h24.4a9.87,9.87,0,0,0,9.87-9.87V414.9Z"/><path class="cls-5" d="M148.82,342.29l80.68,72.61s-22.6,11.41-50.48,34.4a11.33,11.33,0,0,1-17.54-4l-37.91-83.39,12-18A8.83,8.83,0,0,1,148.82,342.29Z"/><path class="cls-5" d="M310.19,342.29,229.51,414.9s22.6,11.41,50.48,34.4a11.33,11.33,0,0,0,17.54-4l37.91-83.39-12-18A8.83,8.83,0,0,0,310.19,342.29Z"/><path class="cls-8" d="M283,38.65l8.27,58.48c37.77,7.56,43.22,66.84,44,83.77a17.41,17.41,0,0,0,2.79,8.63l14.41,22.36s-4.93-37,17.65-61.79C370.16,150.09,377.91,3.34,283,38.65Z"/><path class="cls-4" d="M361.36,208.11l-10,39.86a10.61,10.61,0,0,1-10.3,8h0a10.61,10.61,0,0,1-10.53-9.3l-5.1-40.77a18.28,18.28,0,0,1,18.14-20.55h0A18.28,18.28,0,0,1,361.36,208.11Z"/><path class="cls-9" d="M123.21,22.83l13.06,8.92c-59,43.58-48,118.34-48,118.34,17.65,17.65,17.65,61.79,17.65,61.79l17.65-17.65s-6.81-51,26.48-70.62c30.9-18.21,57.93-8.83,85.51-8.83,73.93,0,94.62-27.86,91-61.79-1.86-17.56-28.7-54.13-97.1-53C201.9.5,150.06,8.85,123.21,22.83Z"/><path class="cls-10" d="M118.06,107.06s-9.38-37,18.21-75.31c-59,43.58-48,118.34-48,118.34,17.65,17.65,17.65,61.79,17.65,61.79l17.65-17.65s-6.81-51,26.48-70.62c30.9-18.21,57.93-8.83,85.51-8.83a216.88,216.88,0,0,0,31.83-2.18C210.47,114.5,176.91,71.38,118.06,107.06Z"/><path class="cls-1" d="M97.66,208.11l10,39.86a10.61,10.61,0,0,0,10.3,8h0a10.61,10.61,0,0,0,10.53-9.3l5.1-40.77a18.28,18.28,0,0,0-18.14-20.55h0A18.28,18.28,0,0,0,97.66,208.11Z"/><path class="cls-5" d="M344.26,494.35H282.47a8.83,8.83,0,0,0-8.83,8.83V512h79.44v-8.83A8.83,8.83,0,0,0,344.26,494.35Z"/></g></g></svg>