<svg xmlns="http://www.w3.org/2000/svg" viewBox="0 0 448 512">
	<defs>
		<style>.cls-1{fill:#e2e5e7;}.cls-2{fill:#b0b7bd;}.cls-3{fill:#cad1d8;}.cls-4{fill:#f15642;}.cls-5{fill:#fff;}
		</style>
	</defs>
	<g id="Слой_2" data-name="Слой 2">
		<g id="Layer_1" data-name="Layer 1">
			<path class="cls-1"
			      d="M96,0A32.09,32.09,0,0,0,64,32V480a32.09,32.09,0,0,0,32,32H416a32.09,32.09,0,0,0,32-32V128L320,0Z"/>
			<path class="cls-2" d="M352,128h96L320,0V96A32.09,32.09,0,0,0,352,128Z"/>
			<polygon class="cls-3" points="448 224 352 128 448 128 448 224"/>
			<path class="cls-4"
			      d="M384,416a16,16,0,0,1-16,16H16A16,16,0,0,1,0,416V256a16,16,0,0,1,16-16H368a16,16,0,0,1,16,16Z"/>
			<path class="cls-5"
			      d="M69.74,303.15a8.8,8.8,0,0,1,8.69-8.83H108c16.64,0,31.62,11.14,31.62,32.48,0,20.22-15,31.49-31.62,31.49H86.62v16.9c0,5.63-3.58,8.82-8.19,8.82a8.62,8.62,0,0,1-8.69-8.82Zm16.88,7.28V342.3H108c8.58,0,15.36-7.57,15.36-15.5,0-8.94-6.78-16.37-15.36-16.37Z"/>
			<path class="cls-5"
			      d="M164.66,384c-4.22,0-8.83-2.3-8.83-7.92V303.41c0-4.59,4.61-7.94,8.83-7.94H194c58.46,0,57.18,88.53,1.15,88.53Zm8.06-72.91V368.4H194c34.54,0,36.08-57.31,0-57.31H172.72Z"/>
			<path class="cls-5"
			      d="M271.87,312.11v20.34H304.5c4.61,0,9.22,4.61,9.22,9.07,0,4.22-4.61,7.68-9.22,7.68H271.87v26.86a7.58,7.58,0,0,1-7.66,7.92c-5.63,0-9.07-3.44-9.07-7.92V303.39c0-4.59,3.46-7.94,9.07-7.94h44.91c5.63,0,9,3.34,9,7.94a8.84,8.84,0,0,1-9,8.7H271.87Z"/>
			<path class="cls-3" d="M368,432H64v16H368a16,16,0,0,0,16-16V416A16,16,0,0,1,368,432Z"/>
		</g>
	</g>
</svg>