<svg xmlns="http://www.w3.org/2000/svg" viewBox="0 0 612 611.66"><defs><style>.cls-1{fill:#fff;}</style></defs><title>clock</title><g id="Слой_2" data-name="Слой 2"><g id="Capa_1" data-name="Capa 1"><path class="cls-1" d="M587.57,186.71c-32.27-75.22-87.1-129.93-162.95-162.29A300.78,300.78,0,0,0,305.5,0,297.67,297.67,0,0,0,186.71,24.43C111.49,56.69,56.42,111.37,24.09,186.71a305.72,305.72,0,0,0,0,237.91C56.42,500,111.49,555,186.71,587.24A297.68,297.68,0,0,0,305.5,611.66a300.88,300.88,0,0,0,119.12-24.42c75.85-32.35,130.68-87.4,163-162.62a301.85,301.85,0,0,0,0-237.91Zm-48.85,254c-24,41.2-56.93,73.88-98.38,98-41.2,24-86.33,36.14-134.85,36.14a259.12,259.12,0,0,1-104.4-21.41c-33.13-14.38-61.73-33.29-85.66-57.21s-43-52.81-57.21-86S37.15,342,37.15,305.5Q37.15,232.72,73,171c24-41.23,56.89-73.95,98-98s86-36.14,134.5-36.14,93.65,12.12,134.85,36.14a269.28,269.28,0,0,1,98.38,98q36.14,61.73,36.14,134.51C574.85,354,562.89,399.23,538.72,440.68Z"/><path class="cls-1" d="M324.91,302.82V129.49c0-10.37-9-18.74-19.41-18.74-9.7,0-18.4,8.37-18.4,18.74v176a15.29,15.29,0,0,1,.67,2.68q-1,9,5,15.06l100.05,100c6.7,6.7,19.07,6.7,25.76,0,7.69-7.7,7.19-18.86,0-26.1Z"/></g></g></svg>