<svg xmlns="http://www.w3.org/2000/svg" viewBox="0 0 60 60">
	<g id="Слой_2" data-name="Слой 2">
		<g id="Capa_1" data-name="Capa 1">
			<path d="M50,32a5,5,0,1,0-5-5A5,5,0,0,0,50,32Zm0-8a3,3,0,1,1-3,3A3,3,0,0,1,50,24Z"/>
			<path d="M18,9H36a1,1,0,0,0,0-2H18a1,1,0,0,0,0,2Z"/>
			<path d="M42,12H18a1,1,0,0,0,0,2H42a1,1,0,0,0,0-2Z"/>
			<path d="M42,43H18a1,1,0,0,0,0,2H42a1,1,0,0,0,0-2Z"/>
			<path d="M42,48H18a1,1,0,0,0,0,2H42a1,1,0,0,0,0-2Z"/>
			<path d="M51,17V0H9V17H0V51H6v3H9v6H51V54h3V51h6V17ZM11,2H49V17H11ZM9,19H58V35H2V19ZM8,52V45a1,1,0,0,0-2,0v4H2V37H9V52Zm41,6H11V37H49V58Zm5-9V45a1,1,0,0,0-2,0v7H51V37h7V49Z"/>
			<path d="M6,24H9a1,1,0,0,0,0-2H6a1,1,0,0,0,0,2Z"/>
			<path d="M6,28H9a1,1,0,0,0,0-2H6a1,1,0,0,0,0,2Z"/>
			<path d="M6,32H9a1,1,0,0,0,0-2H6a1,1,0,0,0,0,2Z"/>
			<path d="M13,24h3a1,1,0,0,0,0-2H13a1,1,0,0,0,0,2Z"/>
			<path d="M13,28h3a1,1,0,0,0,0-2H13a1,1,0,0,0,0,2Z"/>
			<path d="M13,32h3a1,1,0,0,0,0-2H13a1,1,0,0,0,0,2Z"/>
			<path d="M20,24h3a1,1,0,0,0,0-2H20a1,1,0,0,0,0,2Z"/>
			<path d="M20,28h3a1,1,0,0,0,0-2H20a1,1,0,0,0,0,2Z"/>
			<path d="M20,32h3a1,1,0,0,0,0-2H20a1,1,0,0,0,0,2Z"/>
		</g>
	</g>
</svg>