<svg xmlns="http://www.w3.org/2000/svg" viewBox="0 0 511.89 512">
	<g id="Слой_2" data-name="Слой 2">
		<g id="Capa_1" data-name="Capa 1">
			<path class="cls-1"
			      d="M507.46,485.89,383,361.47a217.43,217.43,0,0,0,53.58-143.16C436.62,97.86,338.65,0,218.31,0S0,98,0,218.31,98,436.62,218.31,436.62A217.43,217.43,0,0,0,361.47,383L485.89,507.46A15.43,15.43,0,0,0,496.67,512a15,15,0,0,0,10.78-4.54A15.35,15.35,0,0,0,507.46,485.89ZM30.54,218.31c0-103.54,84.24-187.66,187.66-187.66s187.66,84.24,187.66,187.66S321.73,406.08,218.2,406.08,30.54,321.84,30.54,218.31Z"/>
		</g>
	</g>
</svg>