<svg xmlns="http://www.w3.org/2000/svg" viewBox="0 0 512 512">
	<defs>
		<style>.cls-1{fill:#fff;}</style>
	</defs>
	<g id="Слой_2" data-name="Слой 2">
		<g id="Layer_1" data-name="Layer 1">
			<rect class="cls-1" x="495.48" y="495.48" width="16.52" height="16.52"/>
			<path class="cls-1"
			      d="M512,181.68V165.16H346.84v16.52h16.52V256H346.84v16.52h16.52v74.32h-25.6L306.47,49.55h15.6V0H223V49.55h15.6L207.28,346.84h-13.5L65.72,194.77a32.95,32.95,0,1,0-40.94,35.29V495.48H0V512H479V495.48H462.45V412.9H512V346.84H495.48V272.52H512V256H495.48V181.68Zm-132.13,0H479V256h-99.1Zm0,90.84H479v74.32h-99.1ZM320.64,342l-69.48-69.48h62.17Zm-9.84-93.42L258,189.94h46.61Zm-60-157.75,4.34-41.29h34.68l4.34,41.29Zm45.11,16.52,5.72,54.38-38.06-54.38Zm-6.26,66.06H242.13l6.22-59.05Zm-50.2-156.9h66.06V33H239.48Zm.44,178L295.27,256H233.45ZM231.33,276l70.8,70.8H223.88Zm-59.15,70.8H136.47l-11.35-16.52h33.16Zm-52.47-62.32,24.66,29.28h-30.6l-3.65-5.31ZM107.65,270.2l-8.78,21.94-30-43.66,32.08,13.75ZM61.26,215.11l16,19L53.49,223.93A33.25,33.25,0,0,0,61.26,215.11ZM16.52,198.19A16.52,16.52,0,1,1,33,214.71,16.53,16.53,0,0,1,16.52,198.19Zm90.84,297.29H41.29V237.54l50.21,73-.07.17.26.1,24.74,36H57.81V412.9h49.55Zm82.58-33h-8.26V479h8.26v16.52H123.87V479h41.29V462.45H123.87V412.9h66.06Zm173.42,33H206.45V412.9h156.9Zm82.58-33h-8.26V479h8.26v16.52H379.87V479h41.29V462.45H379.87V412.9h66.06Zm49.55-66.06H74.32v-33H495.48Z"/>
			<rect class="cls-1" x="396.39" y="198.19" width="16.52" height="16.52"/>
			<rect class="cls-1" x="429.42" y="198.19" width="16.52" height="16.52"/>
			<rect class="cls-1" x="445.94" y="313.81" width="16.52" height="16.52"/>
			<rect class="cls-1" x="412.9" y="313.81" width="16.52" height="16.52"/>
		</g>
	</g>
</svg>