<svg xmlns="http://www.w3.org/2000/svg" viewBox="0 0 512 436.06">
	<defs>
		<style>.cls-1{fill:#fff;}</style>
	</defs>
	<g id="Слой_2" data-name="Слой 2">
		<g id="Capa_1" data-name="Capa 1">
			<path class="cls-1"
			      d="M454.2,91.77H189V67.11a11.67,11.67,0,0,0,8.69-11.28V11.68A11.68,11.68,0,0,0,186,0H61A11.68,11.68,0,0,0,49.28,11.68V55.83A11.68,11.68,0,0,0,58,67.11V91.77H57.8A57.86,57.86,0,0,0,0,149.57V378.26a57.87,57.87,0,0,0,57.8,57.8H454.2a57.86,57.86,0,0,0,57.8-57.8V149.57A57.87,57.87,0,0,0,454.2,91.77ZM72.64,23.36H174.34V44.15H72.64Zm8.69,44.15h84.31V91.77H81.33Zm407.3,310.75A34.47,34.47,0,0,1,454.2,412.7H57.8a34.47,34.47,0,0,1-34.44-34.44V149.57A34.48,34.48,0,0,1,57.8,115.13H454.2a34.48,34.48,0,0,1,34.44,34.44Z"/>
			<path class="cls-1"
			      d="M469.47,217.45a111.85,111.85,0,0,0-78,0,88.49,88.49,0,0,1-61.66,0,111.84,111.84,0,0,0-77.94,0l-.1,0a88.48,88.48,0,0,1-61.56,0,111.86,111.86,0,0,0-77.94,0,88.46,88.46,0,0,1-61.66,0,11.68,11.68,0,1,0-8.14,21.9,111.83,111.83,0,0,0,77.94,0,88.49,88.49,0,0,1,61.66,0,111.85,111.85,0,0,0,77.94,0l.11,0a88.48,88.48,0,0,1,61.56,0,111.85,111.85,0,0,0,78,0,88.48,88.48,0,0,1,61.65,0,11.68,11.68,0,0,0,8.14-21.9Z"/>
		</g>
	</g>
</svg>