<svg xmlns="http://www.w3.org/2000/svg" viewBox="0 0 512 512">
	<g id="Слой_2" data-name="Слой 2">
		<g id="Layer_1" data-name="Layer 1">
			<path class="cls-1"
			      d="M291.05,242.81a8.54,8.54,0,0,0,11.49,3.73c.5-.26,50.73-25.77,75.5-33.6a8.54,8.54,0,0,0-5.15-16.28c-26.09,8.25-76,33.6-78.1,34.67A8.54,8.54,0,0,0,291.05,242.81Z"/>
			<path class="cls-1"
			      d="M298.67,145.07a8.52,8.52,0,0,0,3.87-.93c.5-.26,50.73-25.77,75.5-33.6a8.54,8.54,0,0,0-5.15-16.28c-26.09,8.25-76,33.6-78.1,34.67a8.53,8.53,0,0,0,3.88,16.14Z"/>
			<path class="cls-1"
			      d="M503.46,128a8.53,8.53,0,0,0-8.53,8.53v332.8a25.63,25.63,0,0,1-25.6,25.6H264.53V475.3c12.44-4.35,44.85-14.5,76.8-14.5,74.33,0,124.81,16.46,125.31,16.63a8.53,8.53,0,0,0,11.22-8.1V93.87a8.52,8.52,0,0,0-6.68-8.33s-6.69-1.49-18.12-3.59A8.53,8.53,0,0,0,450,98.73c4.36.8,8,1.51,10.83,2.07V458c-19.34-5.07-62.28-14.26-119.47-14.26-37.18,0-73.7,12.21-85,16.35-10-4.44-40.4-16.35-77.13-16.35a575,575,0,0,0-128,14.62V100.47a561.68,561.68,0,0,1,128-15.14c31.11,0,57.8,9.68,68.27,14.06V435.2a8.53,8.53,0,0,0,12.93,7.31c.84-.5,85.39-51,160.43-76a8.53,8.53,0,0,0,5.84-8.1V8.54a8.55,8.55,0,0,0-11.54-8c-68.27,25.61-137.36,68.6-138.05,69a8.53,8.53,0,0,0,9,14.47c.63-.4,60.73-37.79,123.48-63V352.29c-58.25,20.24-119.07,53.29-145.07,68.09V93.87a8.54,8.54,0,0,0-4.72-7.64c-1.47-.72-36.44-18-80.61-18C102.09,68.27,42.81,85,40.32,85.67a8.53,8.53,0,0,0-6.19,8.2V469.33a8.53,8.53,0,0,0,8.53,8.53,8.41,8.41,0,0,0,2.34-.33c.59-.16,59.6-16.73,134.19-16.73,31.2,0,57.86,9.71,68.27,14.07v20.06H42.67a25.63,25.63,0,0,1-25.6-25.6V136.54a8.53,8.53,0,1,0-17.07,0v332.8A42.72,42.72,0,0,0,42.67,512H469.33A42.72,42.72,0,0,0,512,469.33V136.54A8.53,8.53,0,0,0,503.46,128Z"/>
			<path class="cls-1"
			      d="M291.05,191.61a8.54,8.54,0,0,0,11.49,3.73c.5-.26,50.73-25.77,75.5-33.6a8.54,8.54,0,0,0-5.15-16.28c-26.09,8.25-76,33.6-78.1,34.67A8.54,8.54,0,0,0,291.05,191.61Z"/>
			<path class="cls-1"
			      d="M291.05,294a8.54,8.54,0,0,0,11.49,3.73c.5-.26,50.73-25.77,75.5-33.6a8.54,8.54,0,0,0-5.15-16.28c-26.09,8.25-76,33.6-78.1,34.67A8.54,8.54,0,0,0,291.05,294Z"/>
			<path class="cls-1"
			      d="M206.74,158.36C154.05,146,94.17,161.75,91.66,162.43a8.53,8.53,0,0,0,2.2,16.78,8.68,8.68,0,0,0,2.22-.29c.57-.16,58.22-15.33,106.78-3.93a8.53,8.53,0,1,0,3.89-16.61Z"/>
			<path class="cls-1"
			      d="M206.74,209.56C154.05,197.21,94.17,213,91.66,213.63a8.53,8.53,0,0,0,2.2,16.78,8.68,8.68,0,0,0,2.22-.29c.57-.16,58.22-15.33,106.78-3.93a8.53,8.53,0,1,0,3.89-16.61Z"/>
			<path class="cls-1"
			      d="M291.05,345.21a8.54,8.54,0,0,0,11.49,3.73c.5-.26,50.73-25.77,75.5-33.6a8.54,8.54,0,0,0-5.15-16.28c-26.09,8.25-76,33.6-78.1,34.67A8.54,8.54,0,0,0,291.05,345.21Z"/>
			<path class="cls-1"
			      d="M206.74,260.76c-52.69-12.36-112.57,3.38-115.09,4.06a8.54,8.54,0,0,0,2.2,16.78,8.65,8.65,0,0,0,2.22-.3c.57-.16,58.22-15.33,106.78-3.93a8.53,8.53,0,1,0,3.89-16.61Z"/>
			<path class="cls-1"
			      d="M206.74,363.16c-52.69-12.36-112.57,3.39-115.09,4.06A8.54,8.54,0,0,0,93.86,384a8.65,8.65,0,0,0,2.22-.3c.57-.16,58.22-15.33,106.78-3.93a8.53,8.53,0,1,0,3.89-16.61Z"/>
			<path class="cls-1"
			      d="M206.74,312C154.05,299.6,94.17,315.34,91.66,316a8.54,8.54,0,0,0,2.2,16.78,8.65,8.65,0,0,0,2.22-.3c.57-.16,58.22-15.33,106.78-3.93A8.53,8.53,0,1,0,206.74,312Z"/>
		</g>
	</g>
</svg>