<svg xmlns="http://www.w3.org/2000/svg" viewBox="0 0 424.04 356">
    <g id="Слой_2" data-name="Слой 2">
        <g id="Capa_1" data-name="Capa 1">
            <path class="cls-1"
                  d="M352.41,0c-32.4,0-58,26-58,58.4a57.79,57.79,0,0,0,57.58,58h.42A58.47,58.47,0,0,0,410.81,58C410.81,25.62,384.81,0,352.41,0Zm0,103.6A45.58,45.58,0,0,1,306.81,58v0c0-25.2,20.8-45.2,45.6-45.2a45.4,45.4,0,0,1,0,90.8Z"/>
            <path class="cls-1"
                  d="M324.41,124c-2-2.8-6.4-3.2-9.2-1.2l-64.8,51.6-83.6-34.8a6.38,6.38,0,0,0-6,.8l-89.6,64a6.39,6.39,0,0,0-1.6,8.8,5.83,5.83,0,0,0,5.2,2.8,6.45,6.45,0,0,0,3.6-1.2l86.8-62,84,34.8a7.2,7.2,0,0,0,6.4-.8l67.6-53.6C326,131.22,326.41,126.82,324.41,124Z"/>
            <path class="cls-1"
                  d="M418,343.22h-29.6V158a6.32,6.32,0,0,0-6.24-6.4h-59a6.32,6.32,0,0,0-6.4,6.24q0,.08,0,.16V343.2h-21.6V222a6.32,6.32,0,0,0-6.24-6.4H229.61a6.32,6.32,0,0,0-6.4,6.24q0,.08,0,.16V343.2h-21.6V212.42a6.32,6.32,0,0,0-6.24-6.4h-59a6.32,6.32,0,0,0-6.4,6.24q0,.08,0,.16v130.8h-21.6V250a6.32,6.32,0,0,0-6.24-6.4H42.81a6.32,6.32,0,0,0-6.4,6.24q0,.08,0,.16v93.2h-30a6.4,6.4,0,0,0,0,12.8H417.61a6.32,6.32,0,0,0,6.4-6.24q0-.08,0-.16a5.78,5.78,0,0,0-6-6.38Zm-322.8,0h-46v-86.8h46Zm93.6,0h-46V218.82h46Zm93.2,0H236V228.42h46Zm93.6,0h-46V164.42h46Z"/>
            <path class="cls-1"
                  d="M327.12,80h10.19v8.73a1.4,1.4,0,0,0,1.34,1.46h7.71a1.44,1.44,0,0,0,1-.41,1.37,1.37,0,0,0,.43-1V80h23a1.4,1.4,0,0,0,1.46-1.34s0-.08,0-.12V72.72a1.4,1.4,0,0,0-1.34-1.46H347.79V65.95h15.46q9.09,0,14.85-5.55a19,19,0,0,0,5.75-14.33,19,19,0,0,0-5.75-14.33q-5.75-5.54-14.85-5.55H338.76a1.4,1.4,0,0,0-1.46,1.34s0,.07,0,.11V56.26H327.12a1.38,1.38,0,0,0-1,.43,1.44,1.44,0,0,0-.41,1v6.78A1.4,1.4,0,0,0,327,65.93h10.31V71.3H327.12a1.4,1.4,0,0,0-1.46,1.34s0,.08,0,.12v5.82A1.4,1.4,0,0,0,327,80h.12Zm20.69-44.11h14.55a10.8,10.8,0,0,1,7.78,2.82,10.66,10.66,0,0,1,0,14.73,10.79,10.79,0,0,1-7.78,2.82H347.81Z"/>
        </g>
    </g>
</svg>