<svg xmlns="http://www.w3.org/2000/svg" viewBox="0 0 512 327.63">
    <g id="Слой_2" data-name="Слой 2">
        <g id="Capa_1" data-name="Capa 1">
            <path class="cls-1"
                  d="M344.21,184.57,300.63,165.2a8.54,8.54,0,0,1-5.07-7.8v-12a63.51,63.51,0,0,0,24-49.76V78.83a15.54,15.54,0,0,0,8-13.58V63.61A63.69,63.69,0,0,0,264,0H248a63.69,63.69,0,0,0-63.61,63.61V78.45a15.73,15.73,0,0,0,6,12.6,14.63,14.63,0,0,0,2,1.32v3.31a63.51,63.51,0,0,0,24,49.76v12a8.54,8.54,0,0,1-5.07,7.8l-43.58,19.37a39.6,39.6,0,0,0-23.5,36.15v99.4a7.5,7.5,0,0,0,15,0v-99.4a24.53,24.53,0,0,1,.15-2.58l20.08,20.08a16.44,16.44,0,0,1,4.85,11.7v70.2a7.5,7.5,0,0,0,15,0v-70.2a31.34,31.34,0,0,0-9.24-22.31l-23.94-23.94a24.5,24.5,0,0,1,7.69-5.4l42.85-19L248.5,211V320.13a7.5,7.5,0,0,0,15,0V211l31.77-31.77,42.85,19a24.49,24.49,0,0,1,7.69,5.4l-23.94,23.94a31.34,31.34,0,0,0-9.24,22.31v70.2a7.5,7.5,0,0,0,15,0v-70.2a16.44,16.44,0,0,1,4.85-11.7l20.08-20.08a24.49,24.49,0,0,1,.15,2.58v99.4a7.5,7.5,0,0,0,15,0v-99.4A39.6,39.6,0,0,0,344.21,184.57ZM256,197.3l-27.88-27.88a23.49,23.49,0,0,0,3.32-12v-3.05a63.56,63.56,0,0,0,49.13,0v3.05a23.49,23.49,0,0,0,3.32,12Zm0-53a48.67,48.67,0,0,1-48.61-48.61V92.3A44.34,44.34,0,0,0,221,83.46a7.5,7.5,0,0,0-10.17-11c-3.75,3.46-7.5,5.7-11.14,6.65l-.2,0a1.52,1.52,0,0,1-.13-.68V63.61A48.67,48.67,0,0,1,248,15h16a48.67,48.67,0,0,1,48.61,48.61v1.63a.48.48,0,0,1-.34.49c-44.91,8.87-67.44-7.85-75-15.45A7.5,7.5,0,0,0,226.65,60.9c23.29,23.29,57.27,23.71,78,21.22V95.68A48.67,48.67,0,0,1,256,144.29Z"/>
            <path class="cls-1"
                  d="M135.24,143.78v-16A55.59,55.59,0,0,0,109.75,81a31.55,31.55,0,1,0-60.22,0A55.58,55.58,0,0,0,24,127.74v16a55.57,55.57,0,0,0,24,45.74V206a8.49,8.49,0,0,1-4.72,7.63l-25.94,13A31.38,31.38,0,0,0,0,254.83v65.3a7.5,7.5,0,0,0,15,0V258.08l12.22,12.22A16.44,16.44,0,0,1,32.07,282v38.14a7.5,7.5,0,0,0,15,0V282a31.34,31.34,0,0,0-9.24-22.31l-17-17-.25-.23A16.72,16.72,0,0,1,24.15,240l25.94-13a23.89,23.89,0,0,0,3.72-2.32l18.34,18.34v77.05a7.5,7.5,0,0,0,15,0V243.07l18.34-18.34a23.79,23.79,0,0,0,3.72,2.32l7.15,3.58a7.5,7.5,0,1,0,6.71-13.42l-7.15-3.58a8.49,8.49,0,0,1-4.72-7.63V189.52A55.57,55.57,0,0,0,135.24,143.78Zm-55.6-88.7A16.57,16.57,0,0,1,96.19,71.63a16.81,16.81,0,0,1-.26,3,55.59,55.59,0,0,0-32.55,0,16.45,16.45,0,0,1,16.26-19.5Zm0,32.07a40.64,40.64,0,0,1,40.6,40.6v2.72C89,140,70.41,116.27,69.61,115.23a7.5,7.5,0,0,0-11.3-.8A49.06,49.06,0,0,1,39.07,126.7,40.64,40.64,0,0,1,79.64,87.15Zm0,142.22L62.31,212a23.75,23.75,0,0,0,.78-6v-9.15a55.7,55.7,0,0,0,33.1,0V206a23.74,23.74,0,0,0,.78,6Zm0-45A40.64,40.64,0,0,1,39,143.77v-1.55a60.14,60.14,0,0,0,24.1-12,67.67,67.67,0,0,0,13.91,10.13,59.65,59.65,0,0,0,28.66,7.4A62.84,62.84,0,0,0,120.18,146,40.65,40.65,0,0,1,79.64,184.37Z"/>
            <path class="cls-1"
                  d="M494.56,210.58l-42-21a8.49,8.49,0,0,1-4.72-7.63V171.33a47.47,47.47,0,0,0,16-35.57v-8.54h.52a7.5,7.5,0,0,0,7.5-7.5v-16a47.64,47.64,0,0,0-47.58-47.58h-16a47.64,47.64,0,0,0-47.58,47.58v16a7.5,7.5,0,0,0,7.5,7.5h.52v8.54a47.47,47.47,0,0,0,16,35.58V182a8.48,8.48,0,0,1-4.72,7.63A7.5,7.5,0,1,0,386.77,203a23.89,23.89,0,0,0,3.72-2.32L408.82,219v101.1a7.5,7.5,0,0,0,15,0V219l18.34-18.34a23.79,23.79,0,0,0,3.72,2.32l40.61,20.31-12.32,12.32a31.34,31.34,0,0,0-9.24,22.31v62.18a7.5,7.5,0,0,0,15,0V257.94a16.44,16.44,0,0,1,4.85-11.7l11.67-11.67a16.71,16.71,0,0,1,.55,4.22v81.33a7.5,7.5,0,0,0,15,0V238.8A31.37,31.37,0,0,0,494.56,210.58Zm-118.84-99.9v-7h0a32.62,32.62,0,0,1,32.58-32.58h16a32.62,32.62,0,0,1,32.58,32.58V112c-32.6-1.76-52.28-14.45-52.47-14.57a7.5,7.5,0,0,0-9.46.94A49.12,49.12,0,0,1,375.73,110.68Zm40.6,94.63L399,188a23.75,23.75,0,0,0,.78-6v-1.6a47.54,47.54,0,0,0,33.1,0V182a23.7,23.7,0,0,0,.78,6Zm0-37a32.62,32.62,0,0,1-32.58-32.58V123.67h0a63.47,63.47,0,0,0,17.6-10.74c7.88,4.1,24.35,11.18,47.56,13.52v9.31A32.62,32.62,0,0,1,416.32,168.34Z"/>
        </g>
    </g>
</svg>