<svg xmlns="http://www.w3.org/2000/svg" viewBox="0 0 505.67 512">
    <g id="Слой_2" data-name="Слой 2">
        <g id="Layer_1" data-name="Layer 1">
            <path class="cls-1"
                  d="M497.75,196.35H479.14c-20.31-92.92-96-164.94-189.88-180.51V7.92A7.92,7.92,0,0,0,281.34,0h-57a7.92,7.92,0,0,0-7.92,7.92v7.26A234,234,0,0,0,22.3,196.36H7.92A7.92,7.92,0,0,0,0,204.27v44.34a7.92,7.92,0,0,0,7.92,7.92H50.09a8.14,8.14,0,0,0,.72.56q2.48,1.71,5,3.38a354.69,354.69,0,0,0,197,59.4,354.59,354.59,0,0,0,198-60.06q2.26-1.51,4.5-3.06l.28-.22h42.11a7.92,7.92,0,0,0,7.92-7.92V204.27A7.92,7.92,0,0,0,497.75,196.35ZM289.25,31.9c85.16,15.2,153.83,80.32,173.65,164.45H289.25Zm-57-16.07h41.17V196.36H232.25V15.84ZM252.83,304A339,339,0,0,1,79.28,256.53H426.4A338.87,338.87,0,0,1,252.83,304Zm237-63.34h-474v-28.5h144.1a7.92,7.92,0,1,0,0-15.83H38.53A217,217,0,0,1,216.41,31.19V196.35H202.16a7.92,7.92,0,0,0,0,15.84H489.83v28.5Z"/>
            <path class="cls-1"
                  d="M448.13,339.93H413.3a7.92,7.92,0,0,0,0,15.84h34.84a7.93,7.93,0,0,1,7.92,7.92V488.25a7.93,7.93,0,0,1-7.92,7.92h-83.4a87.19,87.19,0,0,1-87.09-87.09V381.63a7.92,7.92,0,0,0-7.92-7.92H235.94a7.92,7.92,0,0,0-7.92,7.92v27.45a87.19,87.19,0,0,1-87.09,87.09H57.53a7.93,7.93,0,0,1-7.92-7.92V363.68a7.93,7.93,0,0,1,7.92-7.92H371.07a7.92,7.92,0,1,0,0-15.84H57.53a23.78,23.78,0,0,0-23.75,23.75V488.25A23.78,23.78,0,0,0,57.53,512h83.4A103,103,0,0,0,243.86,409.07V389.54h17.95v19.53A103,103,0,0,0,364.73,512h83.4a23.78,23.78,0,0,0,23.75-23.75V363.68A23.78,23.78,0,0,0,448.13,339.93Z"/>
            <path class="cls-1"
                  d="M204.27,371.6H73.37a7.92,7.92,0,0,0-7.92,7.92v92.9a7.92,7.92,0,0,0,7.92,7.92h67.56a71.34,71.34,0,0,0,71.26-71.26V379.51A7.92,7.92,0,0,0,204.27,371.6Zm-7.92,37.48a55.49,55.49,0,0,1-55.42,55.42H81.29V387.43H196.36Z"/>
            <path class="cls-1"
                  d="M432.3,371.6H301.39a7.92,7.92,0,0,0-7.92,7.92v29.56a71.34,71.34,0,0,0,71.26,71.26H432.3a7.92,7.92,0,0,0,7.92-7.92v-92.9A7.92,7.92,0,0,0,432.3,371.6Zm-7.92,92.9H364.73a55.49,55.49,0,0,1-55.42-55.42V387.43H424.38Z"/>
            <path class="cls-1"
                  d="M376.67,399.25a7.92,7.92,0,0,0-11.2,0l-30.61,30.61a8,8,0,0,0,5.6,13.52,7.9,7.9,0,0,0,5.6-2.32l30.61-30.61A7.92,7.92,0,0,0,376.67,399.25Z"/>
            <path class="cls-1"
                  d="M410.45,399.25a7.92,7.92,0,0,0-11.2,0l-30.61,30.61a7.92,7.92,0,0,0,11.2,11.2l30.61-30.61A7.92,7.92,0,0,0,410.45,399.25Z"/>
            <path class="cls-1"
                  d="M139.14,399.25a7.92,7.92,0,0,0-11.2,0L97.33,429.87a8,8,0,0,0,5.6,13.52,7.9,7.9,0,0,0,5.6-2.32l30.61-30.61A7.92,7.92,0,0,0,139.14,399.25Z"/>
            <path class="cls-1"
                  d="M172.92,399.25a7.92,7.92,0,0,0-11.2,0l-30.61,30.61a7.92,7.92,0,0,0,11.2,11.2l30.61-30.61A7.92,7.92,0,0,0,172.92,399.25Z"/>
        </g>
    </g>
</svg>