<svg xmlns="http://www.w3.org/2000/svg" viewBox="0 0 370.45 512">
	<g id="Слой_2" data-name="Слой 2">
		<g id="Слой_1-2" data-name="Слой 1">
			<path class="cls-1"
			      d="M344.47,17.69H326.22V8.29a8.29,8.29,0,1,0-16.59,0v9.4H273.14V8.29a8.29,8.29,0,0,0-16.59,0v9.4H220.06V8.29a8.29,8.29,0,0,0-16.59,0v9.4H167V8.29a8.29,8.29,0,0,0-16.59,0v9.4H113.9V8.29a8.29,8.29,0,0,0-16.59,0v9.4H60.82V8.29a8.29,8.29,0,0,0-16.59,0v9.4H26a26,26,0,0,0-26,26V486a26,26,0,0,0,26,26H344.47a26,26,0,0,0,26-26V43.68A26,26,0,0,0,344.47,17.69ZM353.87,486a9.41,9.41,0,0,1-9.4,9.4H26a9.41,9.41,0,0,1-9.4-9.4V43.68a9.41,9.41,0,0,1,9.4-9.4H44.23v9.4a8.29,8.29,0,0,0,16.59,0v-9.4H97.31v9.4a8.29,8.29,0,1,0,16.59,0v-9.4h36.49v9.4a8.29,8.29,0,0,0,16.59,0v-9.4h36.49v9.4a8.29,8.29,0,0,0,16.59,0v-9.4h36.49v9.4a8.29,8.29,0,0,0,16.59,0v-9.4h36.49v9.4a8.29,8.29,0,1,0,16.59,0v-9.4h18.25a9.41,9.41,0,0,1,9.4,9.4Z"/>
			<path class="cls-1" d="M158.69,131.59H282.54a8.29,8.29,0,0,0,0-16.59H158.69a8.29,8.29,0,0,0,0,16.59Z"/>
			<path class="cls-1" d="M317.93,150.39H158.69a8.29,8.29,0,0,0,0,16.59H317.93a8.29,8.29,0,0,0,0-16.59Z"/>
			<path class="cls-1"
			      d="M117.43,108.59,79.07,147,58.39,126.28A8.29,8.29,0,0,0,46.66,138L73.2,164.55a8.3,8.3,0,0,0,11.73,0l44.23-44.23a8.3,8.3,0,0,0-11.73-11.73Z"/>
			<path class="cls-1" d="M158.69,220.06H282.54a8.29,8.29,0,0,0,0-16.59H158.69a8.29,8.29,0,0,0,0,16.59Z"/>
			<path class="cls-1" d="M317.93,238.86H158.69a8.29,8.29,0,0,0,0,16.59H317.93a8.29,8.29,0,0,0,0-16.59Z"/>
			<path class="cls-1"
			      d="M117.43,197.05,79.07,235.42,58.39,214.75a8.29,8.29,0,1,0-11.73,11.73L73.2,253a8.3,8.3,0,0,0,11.73,0l44.23-44.23a8.3,8.3,0,0,0-11.73-11.73Z"/>
			<path class="cls-1" d="M158.69,308.53H282.54a8.29,8.29,0,0,0,0-16.59H158.69a8.29,8.29,0,0,0,0,16.59Z"/>
			<path class="cls-1" d="M317.93,327.33H158.69a8.29,8.29,0,0,0,0,16.59H317.93a8.29,8.29,0,0,0,0-16.59Z"/>
			<path class="cls-1"
			      d="M117.43,285.52,79.07,323.89,58.39,303.22a8.29,8.29,0,1,0-11.73,11.73L73.2,341.49a8.3,8.3,0,0,0,11.73,0l44.23-44.23a8.3,8.3,0,0,0-11.73-11.73Z"/>
			<path class="cls-1" d="M158.69,397H282.54a8.29,8.29,0,0,0,0-16.59H158.69a8.29,8.29,0,1,0,0,16.59Z"/>
			<path class="cls-1" d="M317.93,415.79H158.69a8.29,8.29,0,1,0,0,16.59H317.93a8.29,8.29,0,0,0,0-16.59Z"/>
			<path class="cls-1"
			      d="M117.43,374,79.07,412.36,58.39,391.68a8.29,8.29,0,1,0-11.73,11.73L73.2,430a8.3,8.3,0,0,0,11.73,0l44.23-44.23A8.3,8.3,0,0,0,117.43,374Z"/>
		</g>
	</g>
</svg>