<svg xmlns="http://www.w3.org/2000/svg" viewBox="0 0 463.9 512">
	<g id="Слой_2" data-name="Слой 2">
		<g id="Capa_1" data-name="Capa 1">
			<path class="cls-1"
			      d="M286.65,260.18l-38.2-14.74-21.93-21.93a7.48,7.48,0,0,0-5.17-2.19V203.41A80.85,80.85,0,0,0,242,162.61l0,0a22.12,22.12,0,0,0,5.74-.42c10.31-2.11,17.79-11.68,17.79-22.75v-5.74a23.23,23.23,0,0,0-7-16.65c7-37.87,1.36-68.72-16.49-89.33C224.87,7.83,197.13-1.66,161.86.24,129,2,107.9,17.23,101.42,22.6c-9.11,1.18-35.1,7.75-35.1,44.09a196.06,196.06,0,0,0,5.57,46.13A22.94,22.94,0,0,0,59,133.76v5.66c0,11.07,7.48,20.64,17.79,22.75a22.11,22.11,0,0,0,5.74.42l0,0a80.85,80.85,0,0,0,20.67,40.8v17.92A7.48,7.48,0,0,0,98,223.51L76.08,245.44,33.11,262A51.7,51.7,0,0,0,0,312.34l6.1,152.38a7.5,7.5,0,0,0,7.49,7.2h.31a7.5,7.5,0,0,0,7.19-7.79L15,311.74A36.68,36.68,0,0,1,16.47,300l24.36,24.36a36.48,36.48,0,0,1,10.75,26V464.42a7.5,7.5,0,0,0,15,0V350.31a51.38,51.38,0,0,0-15.15-36.57L24,286.25A36.65,36.65,0,0,1,38.51,276L78.6,260.55l30.61,45.91a22.16,22.16,0,0,0,16.31,9.8q1.11.11,2.22.11a22.1,22.1,0,0,0,11.51-3.25l-6.57,151a7.5,7.5,0,0,0,7.17,7.82h.33a7.5,7.5,0,0,0,7.49-7.17l6.1-140h17l6.1,140a7.5,7.5,0,0,0,7.49,7.17h.33a7.5,7.5,0,0,0,7.17-7.82l-6.57-151a22.1,22.1,0,0,0,11.5,3.25c.74,0,1.48,0,2.21-.11a22.15,22.15,0,0,0,16.31-9.79l30.61-45.91,35.32,13.63a7.5,7.5,0,0,0,5.4-14ZM97.24,159.8A15,15,0,0,0,81.69,147.6a7.16,7.16,0,0,1-1.94-.13c-3.3-.68-5.79-4.14-5.79-8.06v-5.66c0-3.83,2.58-7.29,5.87-7.86a7.22,7.22,0,0,1,7.11,2.73,10.61,10.61,0,0,0,14.58,2.29,57.16,57.16,0,0,0,15.36-16.22,7.5,7.5,0,0,0-12.67-8,42.72,42.72,0,0,1-8.33,9.66,22.17,22.17,0,0,0-8.81-4.74,180.32,180.32,0,0,1-5.74-44.89c0-12.22,3.79-20.81,11.25-25.53a25.93,25.93,0,0,1,12-3.82,7.57,7.57,0,0,0,5.18-2.07c.19-.18,19.64-18.25,53-20,30.48-1.65,54,6.06,68.07,22.3C245,54,249.67,79.22,244.43,110.84a33.56,33.56,0,0,0-7.24.5l-7.52-18.05a7.5,7.5,0,0,0-8.83-4.37c-.73.19-73.63,18.79-104.36-19.47a7.5,7.5,0,1,0-11.69,9.39c31.18,38.81,93.26,30.11,113.46,26l5.84,14a12.57,12.57,0,0,0,14.53,7.45,17.51,17.51,0,0,1,6.06-.43,7.81,7.81,0,0,1,5.89,7.76v5.74c0,3.92-2.49,7.38-5.79,8.06a7.09,7.09,0,0,1-1.94.13,15,15,0,0,0-15.55,12.19,66.11,66.11,0,0,1-130,0Zm35.58,139.44a7.24,7.24,0,0,1-11.14-1.1L90.85,251.88l12.8-12.8,47.64,41.69Zm21.57,10.52.49-11.37,7.37-7.37,7.37,7.37.49,11.37Zm7.87-39.31-44.09-38.58V215.92a81.09,81.09,0,0,0,88.18,0v15.95Zm40.58,27.69a7.21,7.21,0,0,1-5.31,3.19,7.13,7.13,0,0,1-5.83-2.08l-18.47-18.47,47.64-41.69,12.8,12.8Z"/>
			<path class="cls-1"
			      d="M463.9,352.19a31.58,31.58,0,0,0-31.55-31.55H383.74V304.1a23.56,23.56,0,0,0-23.53-23.53h-48.1a23.56,23.56,0,0,0-23.53,23.53v16.55H240a31.58,31.58,0,0,0-31.55,31.55v22.27c0,8.21,2.76,16.09,8,23.38v83.42A30.77,30.77,0,0,0,247.17,512h178a30.77,30.77,0,0,0,30.73-30.73V397.84c5.25-7.29,8-15.17,8-23.38V352.19ZM303.58,304.1h0a8.54,8.54,0,0,1,8.53-8.53h48.1a8.54,8.54,0,0,1,8.53,8.53v16.55H303.58ZM448.9,374.46c0,12.87-12.18,25.64-33.1,35.18v-1.33a7.5,7.5,0,0,0-7.5-7.5H376.24a7.5,7.5,0,0,0-7.5,7.5v24a23.53,23.53,0,1,0,47.06,0v-6.41a116,116,0,0,0,25.08-13.47v68.79A15.75,15.75,0,0,1,425.15,497h-178a15.75,15.75,0,0,1-15.73-15.73V412.47a116.06,116.06,0,0,0,25.08,13.47v6.41A23.53,23.53,0,0,0,303,437.68a251.08,251.08,0,0,0,33.2,2.18c2.74,0,5.52,0,8.25-.13a7.5,7.5,0,1,0-.48-15c-2.58.08-5.2.12-7.78.12a235.46,235.46,0,0,1-32.58-2.23V408.31a7.5,7.5,0,0,0-7.5-7.5H264a7.5,7.5,0,0,0-7.5,7.5v1.33c-20.92-9.54-33.1-22.3-33.1-35.18V352.19A16.57,16.57,0,0,1,240,335.65H432.35a16.57,16.57,0,0,1,16.55,16.55Zm-48.1,41.35v16.55a8.53,8.53,0,0,1-17.06,0V415.81ZM271.51,432.35V415.81h17.06v16.55a8.53,8.53,0,1,1-17.06,0Z"/>
		</g>
	</g>
</svg>