<svg xmlns="http://www.w3.org/2000/svg" viewBox="0 0 512 399.78">
	<g id="Слой_2" data-name="Слой 2">
		<g id="Layer_1" data-name="Layer 1">
			<path class="cls-1"
			      d="M139.92,177.62c-1.09-.73-27.12-17.66-69.76-9.13a7.5,7.5,0,0,0-6,7.35v8a7.5,7.5,0,0,0,15,0v-1.7a93.45,93.45,0,0,1,36.94,1.74c9.86,2.6,15.41,6.13,15.56,6.22a7.5,7.5,0,0,0,8.29-12.5Z"/>
			<path class="cls-1"
			      d="M186.92,307.26,148.79,293a8.57,8.57,0,0,1-5.54-8V265.74q2.45-2,4.73-4.17a63.11,63.11,0,0,0,19.32-45.65V201.66l2.15-4.29a55.88,55.88,0,0,0,5.87-24.86V127.74a7.5,7.5,0,0,0-7.5-7.5H84.29A52.29,52.29,0,0,0,32.06,172.5a55.87,55.87,0,0,0,5.87,24.86l2.15,4.29v11.91a67.05,67.05,0,0,0,24,51.45v20a8.57,8.57,0,0,1-5.54,8l-38.12,14.3A31.7,31.7,0,0,0,0,336.8v55.48a7.5,7.5,0,0,0,15,0V336.8A16.63,16.63,0,0,1,25.74,321.3L63.86,307a23.3,23.3,0,0,0,5.68-3.11l26.65,20v68.4a7.5,7.5,0,0,0,15,0v-68.4l26.65-20a23.26,23.26,0,0,0,5.68,3.11l38.12,14.3a16.63,16.63,0,0,1,10.74,15.49v55.48a7.5,7.5,0,0,0,15,0V336.8A31.69,31.69,0,0,0,186.92,307.26Zm-83.22,3.5L78.15,291.6a23.28,23.28,0,0,0,1-6.63V274.34a60.39,60.39,0,0,0,22.61,5.16l2,0a63.4,63.4,0,0,0,24.54-4.9V285a23.28,23.28,0,0,0,1,6.63Zm33.85-59.95a48.24,48.24,0,0,1-35.35,13.7c-26-.78-47.11-23.63-47.11-50.94V199.89a7.5,7.5,0,0,0-.79-3.35l-2.94-5.88a40.83,40.83,0,0,1-4.29-18.18,37.27,37.27,0,0,1,37.23-37.23h76V172.5A40.8,40.8,0,0,1,156,190.66l-2.94,5.88a7.5,7.5,0,0,0-.79,3.35v16A48.23,48.23,0,0,1,137.54,250.81Z"/>
			<path class="cls-1"
			      d="M47.58,344.69a7.5,7.5,0,0,0-7.5,7.5v40.08a7.5,7.5,0,0,0,15,0V352.19A7.5,7.5,0,0,0,47.58,344.69Z"/>
			<path class="cls-1"
			      d="M159.81,344.69a7.5,7.5,0,0,0-7.5,7.5v40.08a7.5,7.5,0,0,0,15,0V352.19A7.5,7.5,0,0,0,159.81,344.69Z"/>
			<path class="cls-1"
			      d="M488.47,0H103.69A23.56,23.56,0,0,0,80.16,23.53V95.67a7.5,7.5,0,1,0,15,0V23.53A8.54,8.54,0,0,1,103.69,15H488.47A8.54,8.54,0,0,1,497,23.53V312.11a8.54,8.54,0,0,1-8.53,8.53H231.95a7.5,7.5,0,1,0,0,15H488.47A23.56,23.56,0,0,0,512,312.11V23.53A23.56,23.56,0,0,0,488.47,0Z"/>
			<path class="cls-1"
			      d="M456.4,240.48h-8.53V55.6a7.5,7.5,0,0,0-7.5-7.5H408.31a7.5,7.5,0,0,0-7.5,7.5V240.48H383.74V119.73a7.5,7.5,0,0,0-7.5-7.5H344.18a7.5,7.5,0,0,0-7.5,7.5V240.48H319.62V87.66a7.5,7.5,0,0,0-7.5-7.5H280.05a7.5,7.5,0,0,0-7.5,7.5V240.48H255.49V151.79a7.5,7.5,0,0,0-7.5-7.5H215.92a7.5,7.5,0,0,0-7.5,7.5v88.69H183.86a7.5,7.5,0,1,0,0,15H456.4a7.5,7.5,0,1,0,0-15Zm-215.92,0H223.42V159.29h17.06Zm64.13,0H287.55V95.16h17.06Zm64.13,0H351.68V127.23h17.06Zm64.13,0H415.81V63.1h17.06Z"/>
			<path class="cls-1" d="M432.35,272.55h-16a7.5,7.5,0,0,0,0,15h16a7.5,7.5,0,0,0,0-15Z"/>
			<path class="cls-1" d="M304.1,272.55h-16a7.5,7.5,0,0,0,0,15h16a7.5,7.5,0,0,0,0-15Z"/>
			<path class="cls-1" d="M368.23,272.55h-16a7.5,7.5,0,0,0,0,15h16a7.5,7.5,0,0,0,0-15Z"/>
			<path class="cls-1" d="M240,272.55h-16a7.5,7.5,0,0,0,0,15h16a7.5,7.5,0,1,0,0-15Z"/>
		</g>
	</g>
</svg>