<svg xmlns="http://www.w3.org/2000/svg" viewBox="0 0 512 495.47">
	<g id="Слой_2" data-name="Слой 2">
		<g id="Capa_1" data-name="Capa 1">
			<polygon class="cls-1"
			         points="379.87 0 379.87 16.53 409.5 16.53 239.47 186.56 156.93 103.91 52.01 208.83 63.6 220.52 156.93 127.29 239.47 209.84 421.19 28.22 421.19 57.75 437.72 57.75 437.72 0 379.87 0"/>
			<path class="cls-1"
			      d="M495.47,478.94h0V115.6H412.93V478.94H396.4V165.19H313.85V479H297.32V280.79H214.68V478.94H198.15V231.21H115.6V478.94H99.07V363.34H16.53v115.6H0v16.53H512V478.94H495.47Zm-412.83,0H33.06V379.87H82.65Zm99.07,0H132.13V247.74h49.59Zm99.07.1H231.21V297.32h49.59Zm99.07,0H330.28V181.72h49.59Zm99.17-.1H429.46V132.13H479Z"/>
		</g>
	</g>
</svg>