<svg xmlns="http://www.w3.org/2000/svg" viewBox="0 0 448 512">
	<g id="Слой_2" data-name="Слой 2">
		<g id="Layer_1" data-name="Layer 1">
			<path fill="#e2e5e7"
			      d="M96,0A32.09,32.09,0,0,0,64,32V480a32.09,32.09,0,0,0,32,32H416a32.09,32.09,0,0,0,32-32V128L320,0Z"/>
			<path fill="#b0b7bd" d="M352,128h96L320,0V96A32.09,32.09,0,0,0,352,128Z"/>
			<polygon fill="#cad1d8" points="448 224 352 128 448 128 448 224"/>
			<path fill="#50bee8"
			      d="M384,416a16,16,0,0,1-16,16H16A16,16,0,0,1,0,416V256a16,16,0,0,1,16-16H368a16,16,0,0,1,16,16Z"/>
			<path fill="#fff"
			      d="M60.58,384c-4.22,0-8.83-2.32-8.83-7.94V303.41c0-4.61,4.61-7.94,8.83-7.94h29.3C148.34,295.47,147,384,91,384Zm8.06-72.93v57.31H89.87c34.54,0,36.06-57.31,0-57.31Z"/>
			<path fill="#fff"
			      d="M196,385.28c-23.66,1-48.24-14.72-48.24-46.06s24.56-46.94,48.24-46.94c22.38,1.14,45.79,16.62,45.79,46.94S218.38,385.28,196,385.28Zm-1.41-76.37c-14.34,0-29.94,10.11-29.94,30.32s15.62,30.34,29.94,30.34c14.72,0,30.45-10.24,30.45-30.34S209.31,308.91,194.59,308.91Z"/>
			<path fill="#fff"
			      d="M256.85,339.09c0-24.69,15.49-45.92,44.91-45.92,11.14,0,20,3.33,29.3,11.39a8.3,8.3,0,1,1-11.39,12c-5.23-5.5-10.61-7-17.9-7-19.7,0-29.15,14-29.15,29.55,0,15.87,9.33,30.45,29.15,30.45,7.3,0,14.08-3,20-8.19a8.59,8.59,0,0,1,11.76,1.54c2,2.82,3.06,7.55-1.41,12-9,8.34-19.7,10-30.34,10C270.8,384.91,256.85,363.78,256.85,339.09Z"/>
			<path fill="#cad1d8" d="M368,432H64v16H368a16,16,0,0,0,16-16V416A16,16,0,0,1,368,432Z"/>
		</g>
	</g>
</svg>