<svg id="Layer_1" data-name="Layer 1" xmlns="http://www.w3.org/2000/svg" viewBox="0 0 448 512">
	<path fill="#e2e5e7"
	      d="M128,0A32.09,32.09,0,0,0,96,32V480a32.09,32.09,0,0,0,32,32H448a32.09,32.09,0,0,0,32-32V128L352,0Z"
	      transform="translate(-32)"/>
	<path fill="#b0b7bd" d="M384,128h96L352,0V96A32.09,32.09,0,0,0,384,128Z" transform="translate(-32)"/>
	<polygon fill="#cad1d8" points="448 224 352 128 448 128 448 224"/>
	<path fill="#b0b7bd" d="M416,416a16,16,0,0,1-16,16H48a16,16,0,0,1-16-16V256a16,16,0,0,1,16-16H400a16,16,0,0,1,16,16Z"
	      transform="translate(-32)"/>
	<path fill="#cad1d8" d="M400,432H96v16H400a16,16,0,0,0,16-16V416A16,16,0,0,1,400,432Z" transform="translate(-32)"/>
</svg>