<svg id="Layer_1" data-name="Layer 1" xmlns="http://www.w3.org/2000/svg" viewBox="0 0 448 512">
	<path fill="#e2e5e7"
	      d="M128,0A32.09,32.09,0,0,0,96,32V480a32.09,32.09,0,0,0,32,32H448a32.09,32.09,0,0,0,32-32V128L352,0Z"
	      transform="translate(-32)"/>
	<path fill="#b0b7bd" d="M384,128h96L352,0V96A32.09,32.09,0,0,0,384,128Z" transform="translate(-32)"/>
	<polygon fill="#cad1d8" points="448 224 352 128 448 128 448 224"/>
	<path fill="#eb1" d="M416,416a16,16,0,0,1-16,16H48a16,16,0,0,1-16-16V256a16,16,0,0,1,16-16H400a16,16,0,0,1,16,16Z"
	      transform="translate(-32)"/>
	<path fill="#cad1d8" d="M400,432H96v16H400a16,16,0,0,0,16-16V416A16,16,0,0,1,400,432Z" transform="translate(-32)"/>
	<path fill="#fff"
	      d="M185,339.71q0,21.6-10.8,33.58t-30.59,12q-20,0-30.77-11.89t-10.74-33.79q0-21.9,10.8-33.64t30.83-11.74q19.72,0,30.5,11.92T185,339.71Zm-67.53,0q0,16.34,6.6,24.78t19.54,8.44q12.89,0,19.45-8.35t6.56-24.87q0-16.28-6.5-24.69t-19.39-8.41q-13,0-19.63,8.41T117.45,339.71Z"
	      transform="translate(-32)"/>
	<path fill="#fff"
	      d="M269.59,339q0,21.91-12.16,33.49t-35,11.59H204a6.36,6.36,0,0,1-6.36-6.36V302a6.36,6.36,0,0,1,6.36-6.36h21q21.12,0,32.86,11.38T269.59,339Zm-15.25.48q0-31.77-29.71-31.77H212.11v64.2H222.4Q254.34,371.93,254.34,339.49Z"
	      transform="translate(-32)"/>
	<path fill="#fff"
	      d="M331.25,360.1q0,11.8-8.53,18.52t-23.54,6.72a62.63,62.63,0,0,1-20.38-2.93,6.3,6.3,0,0,1-4.19-6v-.14a6.38,6.38,0,0,1,8.35-6q2.21.69,4.51,1.24a54.48,54.48,0,0,0,12.68,1.63q8.59,0,12.68-3.27a10.65,10.65,0,0,0,4.08-8.77,11,11,0,0,0-3.75-8.41q-3.75-3.45-15.49-8.17-12.1-4.9-17.06-11.19a23.69,23.69,0,0,1-5-15.13q0-11.07,7.87-17.43t21.12-6.35a60.17,60.17,0,0,1,19.15,3.18,6.33,6.33,0,0,1,3.83,8.32h0a6.39,6.39,0,0,1-8,3.7,48.83,48.83,0,0,0-15.32-2.79q-7,0-10.65,3.06a10,10,0,0,0-3.63,8.08,11.36,11.36,0,0,0,1.45,5.9,14.82,14.82,0,0,0,4.78,4.63,80.65,80.65,0,0,0,12,5.75q9.74,4.05,14.28,7.56a22.27,22.27,0,0,1,6.66,7.93A23.86,23.86,0,0,1,331.25,360.1Z"
	      transform="translate(-32)"/>
</svg>