<svg xmlns="http://www.w3.org/2000/svg" viewBox="0 0 448 512">
	<g id="Слой_2" data-name="Слой 2">
		<g id="Layer_1" data-name="Layer 1">
			<path fill="#e2e5e7"
			      d="M96,0A32.09,32.09,0,0,0,64,32V480a32.09,32.09,0,0,0,32,32H416a32.09,32.09,0,0,0,32-32V128L320,0Z"/>
			<path fill="#b0b7bd" d="M352,128h96L320,0V96A32.09,32.09,0,0,0,352,128Z"/>
			<polygon fill="#cad1d8" points="448 224 352 128 448 128 448 224"/>
			<path fill="#84bd5a"
			      d="M384,416a16,16,0,0,1-16,16H16A16,16,0,0,1,0,416V256a16,16,0,0,1,16-16H368a16,16,0,0,1,16,16Z"/>
			<path fill="#fff"
			      d="M112.34,326.19l22.26-27.89c6.66-8.7,19.58,2.42,12.29,10.74-7.66,9.09-15.73,18.94-23.41,29l26.1,32.5c7,9.6-7,18.8-13.94,9.33l-23.55-30.19L88.93,380.56c-6.53,9.33-21-1.15-13.7-9.86l25.71-32.62c-8.06-10.11-15.87-20-23.66-29-8-9.6,6.91-19.44,12.8-10.46Z"/>
			<path fill="#fff"
			      d="M165.36,303.15a8,8,0,0,1,8.06-7.81,7.8,7.8,0,0,1,7.55,7.81v64.1h34.8c12.53,0,12.8,16.75,0,16.75H173.44a7.73,7.73,0,0,1-8.06-7.79V303.15h0Z"/>
			<path fill="#fff"
			      d="M240,314.67c2.94-24.83,40.42-29.3,58.08-15.73,8.7,7-.51,18.16-8.19,12.53-9.47-6-31-8.82-33.65,4.46-3.46,21,52.19,9,51.3,43-.9,32.5-48,33.25-65.63,18.67a9.46,9.46,0,0,1-1.79-12.54c3.33-3.31,7-4.46,11.39-.88,10.48,7.15,37.49,12.53,39.39-5.65C289.28,339.63,236.06,351,240,314.67Z"/>
			<path fill="#cad1d8" d="M368,432H64v16H368a16,16,0,0,0,16-16V416A16,16,0,0,1,368,432Z"/>
		</g>
	</g>
</svg>