<svg version="1.1" id="Слой_1" xmlns="http://www.w3.org/2000/svg" xmlns:xlink="http://www.w3.org/1999/xlink" x="0px" y="0px"
	 viewBox="0 0 475.8 395.9" style="enable-background:new 0 0 475.8 395.9;" xml:space="preserve">
<g id="Слой_2">
	<g id="Слой_1-2">
		<g id="Слой_2-2">
			<g id="Capa_1">
				<path class="st0" d="M475.8,205.6c0-12.5-10.1-22.6-22.6-22.6H22.6C10.1,183,0,193.1,0,205.6c0,11.8,9,21.6,20.8,22.5
					l19.3,137.9c2.5,17.2,17.2,29.9,34.6,30h326.5c17.4-0.1,32.1-12.8,34.6-30L455,228.1C466.7,227.1,475.8,217.3,475.8,205.6z
					 M453.2,213.1h-19.7c-4.1,0-7.5,3.4-7.5,7.5s3.4,7.5,7.5,7.5h6.4l-19,135.7c-1.4,9.8-9.8,17.1-19.7,17.2H74.6
					c-9.9,0-18.3-7.3-19.7-17.1l-19-135.7h355.6c4.1,0,7.5-3.4,7.5-7.5s-3.4-7.5-7.5-7.5H22.6c-4.2,0-7.6-3.4-7.6-7.6
					c0-4.2,3.4-7.6,7.6-7.6h430.7c4.2,0,7.6,3.4,7.6,7.6C460.8,209.8,457.4,213.2,453.2,213.1L453.2,213.1z M130.4,242.7H69
					c-4.1,0-7.5,3.4-7.5,7.5V281c0,4.1,3.4,7.5,7.5,7.5l0,0h61.4c4.1,0,7.5-3.4,7.5-7.5l0,0v-30.8
					C137.9,246.1,134.6,242.7,130.4,242.7L130.4,242.7L130.4,242.7z M122.9,273.5H76.4v-15.7h46.4V273.5z M222.6,242.7h-61.4
					c-4.1,0-7.5,3.4-7.5,7.5l0,0l0,0V281c0,4.1,3.4,7.5,7.5,7.5l0,0h61.4c4.1,0,7.5-3.4,7.5-7.5l0,0v-30.8
					C230.1,246.1,226.7,242.7,222.6,242.7L222.6,242.7C222.6,242.7,222.6,242.7,222.6,242.7z M215,273.5h-46.4v-15.7H215V273.5z
					 M314.7,242.7h-61.4c-4.1,0-7.5,3.4-7.5,7.5l0,0V281c0,4.1,3.4,7.5,7.5,7.5l0,0h61.4c4.1,0,7.5-3.4,7.5-7.5l0,0v-30.8
					C322.2,246.1,318.9,242.7,314.7,242.7L314.7,242.7L314.7,242.7z M307.2,273.5h-46.4v-15.7h46.4L307.2,273.5z M406.9,242.7h-61.4
					c-4.1,0-7.5,3.4-7.5,7.5l0,0l0,0V281c0,4.1,3.4,7.5,7.5,7.5l0,0h61.4c4.1,0,7.5-3.4,7.5-7.5l0,0v-30.8
					C414.4,246.1,411,242.7,406.9,242.7L406.9,242.7L406.9,242.7L406.9,242.7z M399.4,273.5h-46.4v-15.7h46.4L399.4,273.5z
					 M130.4,304.2H69c-4.1,0-7.5,3.4-7.5,7.5l0,0l0,0v30.7c0,4.1,3.4,7.5,7.5,7.5h61.4c4.1,0,7.5-3.4,7.5-7.5v-30.7
					C137.9,307.5,134.6,304.2,130.4,304.2L130.4,304.2L130.4,304.2L130.4,304.2z M122.9,334.9H76.4v-15.7h46.4L122.9,334.9
					L122.9,334.9z M222.5,304.2h-61.4c-4.1,0-7.5,3.4-7.5,7.5l0,0l0,0v30.7c0,4.1,3.4,7.5,7.5,7.5h61.4c4.1,0,7.5-3.4,7.5-7.5v-30.7
					C230.1,307.5,226.7,304.2,222.5,304.2L222.5,304.2L222.5,304.2L222.5,304.2z M215,334.9h-46.4v-15.7H215V334.9z M314.7,304.2
					h-61.4c-4.1,0-7.5,3.4-7.5,7.5l0,0l0,0v30.7c0,4.1,3.4,7.5,7.5,7.5h61.4c4.1,0,7.5-3.4,7.5-7.5v-30.7
					C322.2,307.5,318.9,304.2,314.7,304.2L314.7,304.2L314.7,304.2L314.7,304.2z M307.2,334.9h-46.4v-15.7h46.4L307.2,334.9z
					 M406.8,304.2h-61.4c-4.1,0-7.5,3.4-7.5,7.5l0,0l0,0v30.7c0,4.1,3.4,7.5,7.5,7.5h61.4c4.1,0,7.5-3.4,7.5-7.5v-30.7
					C414.4,307.5,411,304.2,406.8,304.2L406.8,304.2L406.8,304.2L406.8,304.2z M399.3,334.9h-46.4v-15.7h46.4L399.3,334.9z"/>
			</g>
		</g>
	</g>
</g>
</svg>
