<svg xmlns="http://www.w3.org/2000/svg" viewBox="0 0 362.66 512">
	<defs>
		<style>.cls-1{fill:#fff;}</style>
	</defs>
	<g id="Слой_2" data-name="Слой 2">
		<g id="Layer_1" data-name="Layer 1">
			<path class="cls-1"
			      d="M352,298.67H256V268l8.33-33.31h2.34a10.67,10.67,0,0,0,0-21.33H181.33a10.67,10.67,0,1,0,0,21.33h2.34L192,268v30.68H106.67V85.34H352a10.67,10.67,0,0,0,10.67-10.67C362.66,38.57,339.9,0,276,0H53.33A53.4,53.4,0,0,0,0,53.34V330.67A53.39,53.39,0,0,0,53.33,384H192v64H160a32,32,0,0,0,0,64H288a32,32,0,1,0,0-64H256V384h30.84c32.54,0,50.69-14.91,60.19-27.42,9.8-12.9,15.64-30.56,15.64-47.25A10.67,10.67,0,0,0,352,298.67Zm-109.66-64L237,256H211l-5.33-21.33h36.68Zm-7.67,42.66v21.33H213.33V277.34Zm53.34,192a10.67,10.67,0,1,1,0,21.33H160a10.67,10.67,0,0,1,0-21.33H288ZM234.66,448H213.33V384h21.33ZM330,343.68c-9.57,12.6-24.1,19-43.2,19H53.33a32,32,0,0,1-32-32V53.34a32,32,0,0,1,32-32H276c47.53,0,61.25,23.37,64.47,42.67H96A10.67,10.67,0,0,0,85.33,74.67V309.33A10.67,10.67,0,0,0,96,320H340.26A56.56,56.56,0,0,1,330,343.68Z"/>
			<path class="cls-1"
			      d="M53.34,213h0a10.67,10.67,0,0,0-10.67,10.66v85.67A10.67,10.67,0,0,0,53.33,320h0A10.67,10.67,0,0,0,64,309.33V223.67A10.67,10.67,0,0,0,53.34,213Z"/>
			<path class="cls-1"
			      d="M53.34,181.33A10.67,10.67,0,0,0,42.67,192v.79a10.67,10.67,0,0,0,21.33,0V192A10.67,10.67,0,0,0,53.34,181.33Z"/>
		</g>
	</g>
</svg>