<svg xmlns="http://www.w3.org/2000/svg" viewBox="0 0 477.87 512">
	<defs>
		<style>.cls-1{fill:#fff;}</style>
	</defs>
	<g id="Слой_2" data-name="Слой 2">
		<g id="Capa_1" data-name="Capa 1">
			<path class="cls-1"
			      d="M404.16,282.18l-156.6-60.9L82.39,282.13a8.53,8.53,0,1,0,5.9,16l159.1-58.62L398,298.09a8.53,8.53,0,1,0,6.18-15.91Z"/>
			<path class="cls-1" d="M298.67,162.13h17.07a8.53,8.53,0,1,0,0-17.07H298.67a8.53,8.53,0,0,0,0,17.07Z"/>
			<path class="cls-1" d="M256,162.13h17.07a8.53,8.53,0,0,0,0-17.07H256a8.53,8.53,0,0,0,0,17.07Z"/>
			<path class="cls-1" d="M341.33,162.13H358.4a8.53,8.53,0,1,0,0-17.07H341.33a8.53,8.53,0,0,0,0,17.07Z"/>
			<path class="cls-1" d="M230.4,145.07H213.33a8.53,8.53,0,0,0,0,17.07H230.4a8.53,8.53,0,0,0,0-17.07Z"/>
			<path class="cls-1" d="M187.73,145.07H170.67a8.53,8.53,0,1,0,0,17.07h17.07a8.53,8.53,0,0,0,0-17.07Z"/>
			<path class="cls-1" d="M145.07,145.07H128a8.53,8.53,0,1,0,0,17.07h17.07a8.53,8.53,0,0,0,0-17.07Z"/>
			<path class="cls-1"
			      d="M469.33,426.67h-82c83.83-89.11,73.88-160.32,73.39-163.46l-.78-4.92-41.79-15.67V135.48a24.57,24.57,0,0,0-24.54-24.54H298.67V27.29A27.32,27.32,0,0,0,271.38,0H223.56a27.32,27.32,0,0,0-27.29,27.29v83.64H101.34A24.57,24.57,0,0,0,76.8,135.48V242.62L35,258.29l-.78,4.92c-.49,3.15-10.44,74.36,73.39,163.46H8.53a8.53,8.53,0,0,0,0,17.07h460.8a8.53,8.53,0,1,0,0-17.07Zm-256-399.38a10.23,10.23,0,0,1,10.22-10.22h47.82A10.23,10.23,0,0,1,281.6,27.29v83.64H213.33ZM93.87,135.48a7.48,7.48,0,0,1,7.48-7.48H393.59a7.48,7.48,0,0,1,7.48,7.48V236.22l-148-55.5a15.84,15.84,0,0,0-11.17,0l-148,55.5ZM189,426.67l14.45-101.14a1.5,1.5,0,0,1,1.48-1.26h85a1.49,1.49,0,0,1,1.47,1.28l14.45,101.12Zm134.09,0-14.8-103.53A18.63,18.63,0,0,0,290,307.2H205a18.63,18.63,0,0,0-18.36,15.93l-14.8,103.53H131.46C54.77,351.53,50.36,288,50.79,270.6l196.68-73.75,196.72,73.76c.54,17.4-3.55,80.48-80.71,156.06Z"/>
			<path class="cls-1" d="M375.47,460.8H128a8.53,8.53,0,1,0,0,17.07H375.47a8.53,8.53,0,0,0,0-17.07Z"/>
			<path class="cls-1" d="M307.2,494.93H187.73a8.53,8.53,0,0,0,0,17.07H307.2a8.53,8.53,0,0,0,0-17.07Z"/>
		</g>
	</g>
</svg>