<svg xmlns="http://www.w3.org/2000/svg" viewBox="0 0 512 507.48">
	<defs>
		<style>.cls-1{fill:#fff;}</style>
	</defs>
	<g id="Слой_2" data-name="Слой 2">
		<g id="Слой_1-2" data-name="Слой 1">
			<path class="cls-1"
			      d="M216.83,83h-.13a31,31,0,0,0-15,3.87V64.13a31.16,31.16,0,0,0-8.89-22.06,30.64,30.64,0,0,0-21.95-9.27h-.13a31.18,31.18,0,0,0-15.12,3.89V31.33A31.17,31.17,0,0,0,146.7,9.27,30.62,30.62,0,0,0,124.75,0h-.13A31.39,31.39,0,0,0,93.18,31.11v5.15a30.75,30.75,0,0,0-14.76-3.83h-.13A31.48,31.48,0,0,0,46.68,63.54V142.1a31,31,0,0,0-14.89-3.87h-.13A31.26,31.26,0,0,0,.46,169.3L0,283.94A123.27,123.27,0,0,0,29.94,365.1V499.39a8.1,8.1,0,0,0,8.1,8.1H218.82a8.1,8.1,0,0,0,8.1-8.1V352.33c13.64-20.64,20.88-43.89,21-67.39.14-34.23,0-169.28,0-170.6A31.24,31.24,0,0,0,216.83,83Zm-6.1,266.84V491.29H46.14V362a8.1,8.1,0,0,0-2.1-5.44A107.12,107.12,0,0,1,16.2,284l.46-114.64a15,15,0,0,1,30,0v73.72a8.1,8.1,0,0,0,8.07,8.1c40.6.16,73.49,33.51,73.33,74.32a8.1,8.1,0,1,0,16.2.06c.19-47-35.65-85.9-81.39-90.19V63.57c0-8.1,7.09-14.94,15.48-14.94A15,15,0,0,1,93.18,63.53V189.77a8.1,8.1,0,1,0,16.2,0V31.14A15.17,15.17,0,0,1,124.69,16.2a14.55,14.55,0,0,1,10.43,4.39,15.09,15.09,0,0,1,4.27,10.7V190a8.1,8.1,0,1,0,16.2,0v-126A15.11,15.11,0,0,1,170.76,49a14.56,14.56,0,0,1,10.44,4.4,15.08,15.08,0,0,1,4.28,10.7V190.15a8.1,8.1,0,0,0,16.2,0v-76a15,15,0,1,1,30,.16c0,1.36.14,136.37,0,170.55-.08,21-6.85,41.93-19.55,60.39A8.1,8.1,0,0,0,210.73,349.86Z"/>
			<path class="cls-1"
			      d="M66.7,394.19A122.27,122.27,0,0,0,123.11,408h.5a123.1,123.1,0,0,0,67.23-19.9A8.1,8.1,0,0,0,182,374.57a106.93,106.93,0,0,1-58.41,17.28h-.44a106.22,106.22,0,0,1-49-12,8.1,8.1,0,1,0-7.47,14.37Z"/>
			<path class="cls-1" d="M186.43,458.9h-116a8.1,8.1,0,0,0,0,16.2h116a8.1,8.1,0,0,0,0-16.2Z"/>
			<path class="cls-1"
			      d="M511.54,169.3a31.26,31.26,0,0,0-31.2-31.07h-.13a30.94,30.94,0,0,0-14.89,3.87V63.51a31.47,31.47,0,0,0-31.62-31.08h-.13a30.74,30.74,0,0,0-14.76,3.84V31.08A31.38,31.38,0,0,0,387.37,0h-.13A30.62,30.62,0,0,0,365.3,9.27a31.15,31.15,0,0,0-8.88,22v5.4A31.17,31.17,0,0,0,341.3,32.8h-.13a30.64,30.64,0,0,0-21.95,9.27,31.14,31.14,0,0,0-8.89,22V86.89a31,31,0,0,0-15-3.87h-.13A31.23,31.23,0,0,0,264.1,114.3c0,1.36-.14,136.41,0,170.64.09,23.51,7.34,46.76,21,67.39V499.39a8.1,8.1,0,0,0,8.1,8.1H474a8.1,8.1,0,0,0,8.1-8.1V365.1A123.27,123.27,0,0,0,512,283.94l-.46-114.64ZM465.86,362V491.29H301.27V349.86a8.1,8.1,0,0,0-1.43-4.59c-12.71-18.47-19.47-39.35-19.55-60.39-.14-34.19,0-169.19,0-170.6a15,15,0,0,1,30-.12v76a8.1,8.1,0,1,0,16.2,0V64.06a15.06,15.06,0,0,1,4.28-10.67A14.6,14.6,0,0,1,341.3,49a15.09,15.09,0,0,1,15.12,14.94V190a8.1,8.1,0,0,0,16.2,0V31.26a15.06,15.06,0,0,1,4.27-10.67,14.58,14.58,0,0,1,10.49-4.39,15.15,15.15,0,0,1,15.25,14.91V189.77a8.1,8.1,0,1,0,16.2,0V63.55a15,15,0,0,1,14.89-14.92c8.32,0,15.39,6.84,15.42,14.91V235.35c-45.75,4.3-81.58,43.17-81.39,90.19a8.1,8.1,0,0,0,16.2-.06c-.16-40.82,32.73-74.16,73.33-74.32a8.1,8.1,0,0,0,8.07-8.1V169.35a15,15,0,0,1,30,0L495.8,284A107.12,107.12,0,0,1,468,356.59a8.09,8.09,0,0,0-2.1,5.44Z"/>
			<path class="cls-1"
			      d="M437.83,379.81a106.22,106.22,0,0,1-49,12h-.44A106.93,106.93,0,0,1,330,374.57a8.1,8.1,0,0,0-8.82,13.58A123.09,123.09,0,0,0,388.39,408h.5a122.27,122.27,0,0,0,56.41-13.86,8.1,8.1,0,1,0-7.47-14.37Z"/>
			<path class="cls-1" d="M441.57,458.9h-116a8.1,8.1,0,1,0,0,16.2h116a8.1,8.1,0,0,0,0-16.2Z"/>
		</g>
	</g>
</svg>