<svg id="Слой_1" data-name="Слой 1" xmlns="http://www.w3.org/2000/svg" viewBox="0 0 243 328.08">
	<g>
		<path class="cls-1" d="M103.42,197.09c1.06,0,2.12-.1,3.82-.22-.55,1.26-2.34,1.1-3.66,1.25a42,42,0,0,1-4.49.1c-9.5,0-19-.07-28.5,0-7.1.08-8.5,1.51-8.53,8.54,0,7.5-.11,15,0,22.5.09,4.88,1.08,5.78,5.91,6.07,1.49.09,3,0,4.49.18,2.76.24,4.26,1.7,4.41,4.46a59.19,59.19,0,0,1-.14,12c-.61,4.15-2.74,5.56-6.72,4.15-9.89-3.52-19.54-7.7-29.31-11.52-3-1.16-3.46-3.8-3.48-6.6-.08-8,0-16-.06-24-.07-6.5-1.2-7.63-7.53-7.77-2.67,0-5.34-.06-8,0-5.51.14-6.45,1-6.58,6.41-.13,5,.12,10-.11,15-.25,5.46-3.15,8.87-8.34,10.15,6.1-3.49,7.59-8.86,6.86-15.51-.46-4.12-.12-8.32,0-12.49,0-3.21,1.79-4.94,5-5,5-.06,10-.08,15,0,4.13.07,5.24,2.71,5.22,6.37-.06,9.33,0,18.66,0,28,0,1.95.19,3.31,2.41,4.15q14.93,5.58,29.7,11.57c3.25,1.32,4.58.45,4.69-2.89,0-1,.18-2,.21-3,.1-3.66,1.49-8.06-.06-10.78-1.84-3.23-6.65-.82-10.13-1.24-3.22-.39-4.85-1.93-4.85-5.13,0-9.83,0-19.67,0-29.5,0-4.58,3.19-5.29,6.84-5.28Z" transform="translate(-6.63 -22.76)"/>
		<path class="cls-1" d="M249.63,237.8c-4.19-.17-5.08-3.17-5.29-6.47-.33-5,0-10-.15-15-.17-6.54-1.62-8-8-8.1-6-.06-12-.17-18,0-4.92.18-6.13,1.69-5.61,6.63.79,7.48.44,15,.32,22.47-.08,4.9-2,6.17-6.76,5.16-9.54-2-14.36-7.66-14.92-17.38-.34-6,.41-12,.84-17.94.53-7.23-1.2-8.91-8.47-9-8.5-.09-17,0-25.5,0-1.5,0-3,.07-4.49,0-1.77-.14-4.37.32-4.75-1.7s2.28-2.55,3.86-3.18c12.91-5.16,23.46-13.21,30.86-25.11a54.44,54.44,0,0,0-12.44-71.91,68.61,68.61,0,0,0-23.25-12.36c-7.27-2.17-9.48-6.57-7.41-14,1-3.48,3.7-3.45,6.36-3.47,10.33-.11,20.66,0,31,0,1.83,0,3.67.06,5.5,0,7.3-.45,9.72-3.42,8.76-10.71-2.09-15.82-2.76-16.4-18.67-16.4-8,0-16-.07-24,0-3.63,0-5.93-1.27-8.24-4.33-10.29-13.65-15.87-13.74-26.29.09-2.17,2.89-4.27,4.26-7.75,4.24-10.17-.07-20.34-.09-30.5,0-7.9.07-10.11,2-11.44,9.56-.46,2.62-1,5.24-1.26,7.89-.65,6.15,1.7,9,7.92,9.58,1.83.18,3.67.11,5.5.11,10.67,0,21.34-.1,32,.06,5.44.07,6.39,1.15,6.61,6.46.32,7.83-.26,8.68-7.68,11-13.42,4.2-25,11.33-33.19,22.84-19.29,27-12.4,61.81,15.5,79.88a79.5,79.5,0,0,0,13.77,7.06c1.29.52,3.29,1,3,2.77,0,0,0,0,0,0-4.79-2.14-8.85-3.72-12.66-5.77C63,173.61,53.21,136.58,73,107.29c8.82-13.06,21.53-21.17,36.68-25.12,3.82-1,5.06-2.27,4.91-6.21-.31-8.54-.08-8.54-8.75-8.54-11.16,0-22.33,0-33.49,0-8.69,0-11-2.71-9.66-11.41.49-3.29,1.11-6.56,1.75-9.82C65.62,40,68,37.93,74.22,37.89c11.5-.07,23-.1,34.5,0,2.49,0,3.68-.62,4.7-3,2.41-5.65,7.4-8.81,12.6-11.59a4.38,4.38,0,0,1,4.31,0c5.19,2.79,10.19,6,12.54,11.63,1,2.51,2.35,3,4.77,2.94,11.16-.12,22.33-.07,33.49,0,7.24,0,9.48,1.85,10.84,8.88q1,5.38,1.82,10.82c1,6.61-1.65,9.74-8.44,9.8-13,.11-26,.19-39-.06-3.84-.08-4.76,1-4.66,4.75.25,8.38,0,8.38,7.91,10.84,26.57,8.31,44.4,31.73,44,57.75-.41,23.37-16.39,44.8-40.21,53.91a9.55,9.55,0,0,0-4.18,2.53h32.76c11.79,0,13.71,2.63,11.25,14.53a43.14,43.14,0,0,0,.47,19.31c1.43,5.71,10.48,11.51,16.3,10.91,2.59-.26,1.79-2,1.77-3.24-.14-8-.29-16-.7-24-.32-6.29.92-7.88,7-7.91,7,0,14,.1,21,0,4.26-.08,6.14,2,6.17,6,0,5.17.3,10.36-.07,15.49C244.85,232.43,246,235.59,249.63,237.8Z" transform="translate(-6.63 -22.76)"/>
		<path class="cls-2" d="M245.16,228.18c.37-5.13.11-10.32.07-15.49,0-4-1.91-6.08-6.17-6-7,.14-14,0-21,0-6.12,0-7.36,1.62-7,7.91.41,8,.56,16,.7,24,0,1.22.82,3-1.77,3.24-5.82.6-14.87-5.2-16.3-10.91a43.14,43.14,0,0,1-.47-19.31c2.46-11.9.54-14.53-11.25-14.53H149.17a9.55,9.55,0,0,1,4.18-2.53c23.82-9.11,39.8-30.54,40.21-53.91.45-26-17.38-49.44-44-57.75-7.86-2.46-7.66-2.46-7.91-10.84-.1-3.71.82-4.83,4.66-4.75,13,.25,26,.17,39,.06,6.79-.06,9.39-3.19,8.44-9.8Q193,52.15,192,46.76c-1.36-7-3.6-8.87-10.84-8.88-11.16,0-22.33-.08-33.49,0-2.42,0-3.73-.43-4.77-2.94-2.35-5.68-7.35-8.84-12.54-11.63a4.38,4.38,0,0,0-4.31,0c-5.2,2.78-10.19,5.94-12.6,11.59-1,2.41-2.21,3.06-4.7,3-11.5-.14-23-.11-34.5,0-6.18,0-8.6,2.15-9.81,8.29-.64,3.26-1.26,6.53-1.75,9.82-1.3,8.7,1,11.38,9.66,11.41,11.16,0,22.33,0,33.49,0,8.67,0,8.44,0,8.75,8.54.15,3.94-1.09,5.21-4.91,6.21C94.5,86.12,81.79,94.23,73,107.29c-19.76,29.29-10,66.32,21.74,83.43,3.81,2,7.87,3.63,12.66,5.77l.74.33-.87,0c-1.7.12-2.76.22-3.82.22h-36c-3.65,0-6.81.7-6.84,5.28,0,9.83,0,19.67,0,29.5,0,3.2,1.63,4.74,4.85,5.13,3.48.42,8.29-2,10.13,1.24,1.55,2.72.16,7.12.06,10.78,0,1-.18,2-.21,3-.11,3.34-1.44,4.21-4.69,2.89q-14.76-6-29.7-11.57c-2.22-.84-2.42-2.2-2.41-4.15.06-9.33,0-18.66,0-28,0-3.66-1.09-6.3-5.22-6.37-5-.09-10-.07-15,0-3.2,0-4.94,1.77-5,5-.07,4.17-.41,8.37,0,12.49.73,6.65-.76,12-6.86,15.51v84c3.51,2.55,4.74,6,4.45,10.29s-.12,8.66,0,13c.07,3.78,1.87,5.83,5.89,5.76,6-.11,12-.1,18,0,4.3.07,5.92-2.08,5.89-6.18-.07-10.32,0-20.65,0-31,0-2.07-.15-4,2.37-4.83s4,.54,5.11,2.64a13.64,13.64,0,0,0,5.15,5.34c19.91,11.34,41.28,16.27,63.74,11,16.37-3.82,29.32-14.54,41.57-25.71a56.14,56.14,0,0,0,8.08-8.81c1.94-2.72,4.2-3.11,6.88-2.3A27.43,27.43,0,0,1,180.5,294c10.82,6.84,21.5,13.9,32.33,20.73,2.15,1.36,2.71,2.93,2.68,5.31-.12,8.16,0,16.32-.08,24.48-.06,4.39,1.75,6.46,6.25,6.35,5.82-.15,11.66-.14,17.49,0,4.3.09,6-2.12,6.06-6.1s.25-8,0-12,.69-7.09,4.45-8.94v-86C246,235.59,244.85,232.43,245.16,228.18ZM142.07,131.76c.51-2.7-1.86-6.45,1.53-8,4.84-2.17,11.14.27,13.61,4.44,7.69,13,4.48,29-8.58,39.23,0-7.63-.13-14.37,0-21.11.1-3.34-1.1-5.62-4.34-6.16-2.39-.4-2.4-1.71-2.34-3.46A35.74,35.74,0,0,1,142.07,131.76ZM137.63,150c1.74.12,1.08,1.81,1.09,2.82.13,15,.19,30,.31,45,0,1.87-.17,3-2.58,3.21-3.27.24-4.32,2.86-4.33,5.74-.07,12.66,0,25.32,0,38,0,2.43,1.43,4.29,3.3,7H121.46c4.81-8.14,2.17-16.72,2.65-25,.37-6.3.1-12.65.07-19,0-3.39-.67-6.54-4.87-6.82-2.4-.16-2.06-1.69-2-3.13q.11-22.48.25-45c0-1.49-.26-2.92,2.11-3,3.72-.14,4.52-3,4.53-6q0-29.47-.05-59c0-6.83-.29-13.65-.2-20.48.07-4.68-1.92-6.59-6.59-6.55-14.81.12-29.63,0-44.3,0-.3-.46-.6-.71-.58-.93.76-9.32.76-9.32,9.83-9.32,10.83,0,21.66,0,32.49,0,4.46,0,7.46-1.06,7.06-6.5-.29-4.14,3-6.17,6.16-7.61,1.91-.87,6.72,4.67,6.48,7.61-.45,5.44,2.6,6.53,7.06,6.5,11.66,0,23.34.33,35-.17,5.32-.23,7.09,1.73,7.11,6.49,0,1.16.19,2.32.34,3.92h-43c-7.94,0-8.51.59-8.54,8.51q-.15,37.23-.3,74.45C132.09,144.86,131.27,149.54,137.63,150Zm-23.39-47.49c0,11.31-.08,10.49-11.23,11.65-6.56.68-10.86-1.79-15.58-5-1.74-1.18-2.31-1.93-.5-3.64a58.85,58.85,0,0,1,24.89-14.11c2.39-.68,2.47.34,2.44,2.1C114.2,96.48,114.24,99.48,114.24,102.47ZM85.53,148.39c.85,3.24-.15,4.59-3.59,5.07-7.45,1.06-7.69,1.12-9-6.19-.46-2.6-.48-5.27-.71-7.91a47.22,47.22,0,0,1,5.41-21.5c1-2.08,2-2.69,4.06-1.13,2.63,2,6.38,3.2,7.93,5.77s-2,5.36-2.72,8.28C85.55,136.58,84,142.38,85.53,148.39ZM142,90.82A58.11,58.11,0,0,1,168.78,105c2,1.85,2.28,2.73-.06,4.86-4.66,4.24-9.47,4.77-15.65,4.24-11-.94-11-.27-11-11.29Zm39.58,34.25a50.76,50.76,0,0,1,1.81,7.24,65.28,65.28,0,0,1,.49,6.53,50.49,50.49,0,0,1-1,10.35c-1.4,5.56-1.26,5.27-9,4.19-4.79-.66-3.19-3.52-2.84-6a34.66,34.66,0,0,0-3.35-20.29c-1.38-2.83-.86-4.27,1.59-6C178.1,114.59,178.22,114.54,181.6,125.07ZM153,176.45c5-2.61,8.77-7,11.86-11.89,1.2-1.89,9.61-2.83,11.15-1.3,1,1,0,1.85-.5,2.57A53.65,53.65,0,0,1,149,185.89C147.95,181.49,148.79,178.66,153,176.45Zm-45.82,9.42a54,54,0,0,1-26.56-20.06c-1-1.49-1.52-2.58,1-2.9,4.55-.56,8.87-1.86,11.56,4,1.92,4.22,5.86,7.4,10,9.54S108.49,181.42,107.22,185.87Zm.38-40c.09,6.83,0,13.66,0,21.07-13.82-8.79-16.88-30.64-6.37-41.91,1.13-1.21,11.15-2.17,12.36-1.14.89.75.6,1.84.61,2.8,0,2.67-.12,5.34.05,8,.18,3,0,5.3-3.78,6C108.11,141.23,107.57,143.52,107.6,145.92ZM240.14,315c0,2.39,0,4.59-2.33,6.13-1.81,1.19-2.29,3.12-2.2,5.27.1,2.66,0,5.33,0,8,0,7.08-1.53,8.19-8.69,6.9-2.6-.47-2.06-2.16-2.07-3.71,0-7.33-.12-14.66,0-22a7.2,7.2,0,0,0-3.75-6.95c-11.81-7.47-23.49-15.13-35.23-22.7a31.07,31.07,0,0,0-13.49-4.86,12.93,12.93,0,0,0-12.24,5.12A106.55,106.55,0,0,1,117.35,318c-10.61,4.36-21.35,2.1-32,.49a75.4,75.4,0,0,1-20-5.8c-4.1-1.86-7.78-4.13-10.27-8.29-3.14-5.24-8.9-6.74-14.89-4.61-6.22,2.21-9,6.54-8.86,12.78.21,8.49,0,17,.19,25.49.06,2.8-1.13,3.25-3.56,3.31-7.27.17-7.24.27-7.28-6.82,0-5.73,1.11-11.7-3.93-16.33-.74-.68-.53-2.53-.53-3.84,0-22.83,0-45.66-.09-68.48,0-2.82.75-4.83,3.08-6.28,3-1.88,3.89-4.63,3.7-8.1-.23-4.32,0-8.66-.06-13,0-2.15-.52-4.27,3-4.3,3.41,0,3.22,1.81,3.21,4.11-.06,8.33.09,16.67-.08,25-.07,3.86,1.28,6.13,5,7.53,10.72,4,21.32,8.39,32,12.51A28.79,28.79,0,0,0,72.72,265c6.91.84,10.59-1.75,11.65-8.49a139.59,139.59,0,0,0,1.31-23.92c0-3.55-2.1-4.87-5.48-5s-7.52,1.6-9.51-.81-.61-6.72-.64-10.19c-.09-9.82,0-9.82,9.78-9.82h9c4,0,8.19.76,12-.18,5.63-1.41,8.27,4,12.87,4.54,1,.13.57,1.74.57,2.68,0,8.49.13,17,0,25.49-.08,4.1-2.91,7.57-2.52,12,.62,6.93,3.67,10.41,10.54,10.48,3.34,0,6.69-.24,10,0,11.54,1,14.2-7.89,11.54-16.57-3.34-10.84-.83-21.78-1.7-32.63a4.17,4.17,0,0,1,.24-1.39c4.45.51,5.93-5.08,10.83-4.68a177.33,177.33,0,0,0,25.46.06c5-.3,5.32,1.61,4.72,5.57-1.09,7.32-.36,14.55,1.21,21.8,2.84,13.17,22,19.49,31.4,16.72,3.27-1,4.76-3.34,5.15-6.63a112.66,112.66,0,0,0-.19-23.44c-.31-3.43.42-4.59,4.1-4.55,10.66.11,10.53-.06,10.71,10.55.09,5.42-1.82,11.45,4,15.57.7.5.43,2.52.43,3.84Q240.14,280.54,240.14,315Z" transform="translate(-6.63 -22.76)"/>
	</g>
</svg>
