<svg id="Layer_1" data-name="Layer 1" xmlns="http://www.w3.org/2000/svg" viewBox="0 0 488.73 488.31">
	<path d="M241.47.22a244.31,244.31,0,0,0-227.1,326.9,9,9,0,0,0,8.5,6,11.15,11.15,0,0,0,3.1-.5,9.1,9.1,0,0,0,5.5-11.6c-29.5-82.2-9.9-172.1,51.1-234.6a226.11,226.11,0,0,1,319.7-3.6l1.4,1.3-27.3.3a9.1,9.1,0,0,0,.1,18.2h.1l49.2-.6a9.2,9.2,0,0,0,9-9.2l-.6-49.2a9.11,9.11,0,0,0-9.1-9H425a9.2,9.2,0,0,0-9,9.2l.3,27.3-1.4-1.3A242.42,242.42,0,0,0,241.47.22Z"
	      transform="translate(0 -0.21)"/>
	<path d="M53.87,396.12l.6,49.2a9.11,9.11,0,0,0,9.1,9h.1a9.2,9.2,0,0,0,9-9.2l-.3-27.3,1.4,1.3a244.31,244.31,0,0,0,400.6-257.4,9.08,9.08,0,1,0-17.1,6.1c29.5,82.2,9.9,172.1-51.1,234.6-87.1,89.2-230.6,90.8-319.7,3.7l-1.4-1.3,27.3-.3a9.1,9.1,0,0,0-.1-18.2h-.1l-49.2.6A9.09,9.09,0,0,0,53.87,396.12Z"
	      transform="translate(0 -0.21)"/>
	<path d="M149.27,168.82a2.27,2.27,0,0,1-2,.8l-19.9-3.9a20.68,20.68,0,0,0-3.5-.3,19.7,19.7,0,0,0-18.1,11.9c-.1.1-.1.3-.2.4l-9.4,25.2a19.35,19.35,0,0,0,8.5,23.6l17.5,10.1a2.28,2.28,0,0,1,1,1.9,115.28,115.28,0,0,0,.7,19.5,2.08,2.08,0,0,1-.8,2l-16.9,11.4a19.3,19.3,0,0,0-6.7,24l11.1,24.3a19.25,19.25,0,0,0,17.6,11.3,17.25,17.25,0,0,0,5-.7l19.6-5.2a2,2,0,0,1,2,.7,120.42,120.42,0,0,0,14.3,13.3,2.27,2.27,0,0,1,.8,2l-3.8,19.9a19.32,19.32,0,0,0,12.3,21.8l25.2,9.4a19.89,19.89,0,0,0,6.8,1.2,19.48,19.48,0,0,0,16.8-9.7l10.1-17.5a2.33,2.33,0,0,1,2-1h0a127.13,127.13,0,0,0,18.5-.6,2.08,2.08,0,0,1,2,.8l11.5,17a19.38,19.38,0,0,0,16,8.5,19.8,19.8,0,0,0,8-1.7l24.3-11.1a19.19,19.19,0,0,0,10.6-22.6l-5.2-19.3a2.21,2.21,0,0,1,.7-2.1,109.28,109.28,0,0,0,13.2-14.1,2,2,0,0,1,2-.8l20.2,3.8a21.86,21.86,0,0,0,3.6.3,19.51,19.51,0,0,0,18.2-12.6l9.4-25.2a19.35,19.35,0,0,0-8.5-23.6l-17.3-10a2.28,2.28,0,0,1-1-1.9,125.82,125.82,0,0,0-.6-19.4,2.17,2.17,0,0,1,.8-2l17-11.5a19.3,19.3,0,0,0,6.7-24l-11.1-24.3a19.25,19.25,0,0,0-17.6-11.3,18.42,18.42,0,0,0-5.1.7l-19.2,5.4a2.21,2.21,0,0,1-2.1-.7,123.86,123.86,0,0,0-14-13.2,1.87,1.87,0,0,1-.8-2l3.8-20.2a19.32,19.32,0,0,0-12.3-21.8l-25.2-9.4a19.89,19.89,0,0,0-6.8-1.2,19.48,19.48,0,0,0-16.8,9.7l-10,17.2a2.21,2.21,0,0,1-2,1h0a112.32,112.32,0,0,0-20.1.6,2.35,2.35,0,0,1-2.1-.8L216.57,106a19.38,19.38,0,0,0-16-8.5,19.8,19.8,0,0,0-8,1.7l-24.3,11.1a19.19,19.19,0,0,0-10.6,22.6l5.2,19.6a2,2,0,0,1-.7,2A137.54,137.54,0,0,0,149.27,168.82Zm14.2,11.2a86.58,86.58,0,0,1,11.3-12.1,20.23,20.23,0,0,0,6-20.1l-5.2-19.6a1.11,1.11,0,0,1,.6-1.4l24.3-11.1a.9.9,0,0,1,.5-.1,1.07,1.07,0,0,1,1,.5l11.4,16.8a20.29,20.29,0,0,0,19.2,8.7,86.87,86.87,0,0,1,16.9-.5,20.11,20.11,0,0,0,18.7-10l9.9-17.2a1.26,1.26,0,0,1,1.6-.6l25.2,9.4a1.29,1.29,0,0,1,.8,1.4l-3.8,20.2a20.35,20.35,0,0,0,7.3,19.6,96.37,96.37,0,0,1,11.9,11.2,20.37,20.37,0,0,0,20.4,6l19.1-5.3a1.39,1.39,0,0,1,1.5.6l11.1,24.3a1.39,1.39,0,0,1-.4,1.5l-17,11.5a20.26,20.26,0,0,0-8.7,19,101.14,101.14,0,0,1,.5,16.5,20.16,20.16,0,0,0,10,18.6l17.3,10a1.26,1.26,0,0,1,.6,1.6l-9.4,25.2a1.42,1.42,0,0,1-1.4.8l-20.2-3.8a23.25,23.25,0,0,0-3.7-.4,20,20,0,0,0-15.8,7.7,97.59,97.59,0,0,1-11.3,12,20,20,0,0,0-6,20.2l5.2,19.3a1.11,1.11,0,0,1-.6,1.4L288,372.92a.9.9,0,0,1-.5.1,1.07,1.07,0,0,1-1-.5l-11.5-17a20.33,20.33,0,0,0-19.1-8.7,91.6,91.6,0,0,1-15.7.5,20.47,20.47,0,0,0-18.5,10.1l-10.1,17.5a1.26,1.26,0,0,1-1.6.6l-25.2-9.4a1.29,1.29,0,0,1-.8-1.4l3.8-19.9a20.29,20.29,0,0,0-7.4-19.7,92.54,92.54,0,0,1-12.1-11.3,20.28,20.28,0,0,0-15-6.6,18.61,18.61,0,0,0-5.2.7l-19.6,5.2a1.39,1.39,0,0,1-1.5-.6l-11.1-24.3a1.39,1.39,0,0,1,.4-1.5l16.8-11.4a20.22,20.22,0,0,0,8.7-19.1,113.3,113.3,0,0,1-.6-16.5,20.12,20.12,0,0,0-10-18.4l-17.5-10.1a1.26,1.26,0,0,1-.6-1.6l9.3-24.9a1.84,1.84,0,0,1,1.4-.9h.1l19.9,3.8a23.28,23.28,0,0,0,3.8.4A21.5,21.5,0,0,0,163.47,180Z"
	      transform="translate(0 -0.21)"/>
	<path d="M224.87,298.72a58,58,0,1,0-35.2-74.1A58.09,58.09,0,0,0,224.87,298.72Zm-18.1-68a39.82,39.82,0,0,1,37.6-26.5,41.48,41.48,0,0,1,13.4,2.3,39.85,39.85,0,0,1-13.4,77.4,41.48,41.48,0,0,1-13.4-2.3A39.85,39.85,0,0,1,206.77,230.72Z"
	      transform="translate(0 -0.21)"/>
</svg>