<svg xmlns="http://www.w3.org/2000/svg" viewBox="0 0 447.96 512">
	<defs>
		<style>.cls-1{fill:#fff;}</style>
	</defs>
	<g id="Слой_2" data-name="Слой 2">
		<g id="Layer_1" data-name="Layer 1">
			<path class="cls-1"
			      d="M250.28,34,218.12,1.81a6.39,6.39,0,0,0-8.9,0,6.39,6.39,0,0,0,0,8.9l21.48,21.48H224A223.55,223.55,0,0,0,0,256a6.29,6.29,0,0,0,12.57,0c0-116.6,94.81-211.41,211.41-211.41h6.81L209.32,66a6.39,6.39,0,0,0,0,8.9,6.21,6.21,0,0,0,4.4,1.89,6,6,0,0,0,4.4-1.89l32.16-32.16a6.47,6.47,0,0,0,1.89-4.4A6,6,0,0,0,250.28,34Z"/>
			<path class="cls-1"
			      d="M382.38,414.36A222.51,222.51,0,0,0,448,256a6.29,6.29,0,1,0-12.57,0c0,116.6-94.81,211.41-211.41,211.41h-6.81l21.48-21.48a6.39,6.39,0,0,0,0-8.9,6.29,6.29,0,0,0-8.9,0l-32.16,32.16a6.47,6.47,0,0,0-1.89,4.4,6,6,0,0,0,1.89,4.4l32.16,32.16a6.21,6.21,0,0,0,4.4,1.89,6,6,0,0,0,4.4-1.89,6.39,6.39,0,0,0,0-8.9l-21.48-21.48h6.81A221.51,221.51,0,0,0,382.38,414.36Z"/>
			<path class="cls-1"
			      d="M362,280.89l-13.51-5.55a127.23,127.23,0,0,0,0-38.87L362,230.92a18.63,18.63,0,0,0,10.27-10.27,19,19,0,0,0,0-14.56L364,186.29A18.95,18.95,0,0,0,339.22,176l-13.51,5.55a121.85,121.85,0,0,0-27.45-27.45l5.55-13.51a19.08,19.08,0,0,0-10.27-24.83l-19.8-8.17a19.37,19.37,0,0,0-7.23-1.47,19.06,19.06,0,0,0-17.6,11.73l-5.55,13.51a127.23,127.23,0,0,0-38.87,0l-5.55-13.51a18.95,18.95,0,0,0-24.83-10.27l-19.8,8.17A18.63,18.63,0,0,0,144,126.06a19,19,0,0,0,0,14.56l5.55,13.51a121.85,121.85,0,0,0-27.45,27.45L108.64,176a19.37,19.37,0,0,0-7.23-1.47,19.06,19.06,0,0,0-17.6,11.73l-8.17,19.8A19,19,0,0,0,85.9,230.92l13.51,5.55a127.23,127.23,0,0,0,0,38.87L85.9,280.89a19.08,19.08,0,0,0-10.27,24.83l8.17,19.8a18.95,18.95,0,0,0,24.83,10.27l13.51-5.55a121.85,121.85,0,0,0,27.45,27.45L144,371.2a19.45,19.45,0,0,0,0,14.56A18.63,18.63,0,0,0,154.31,396l19.8,8.17a19.37,19.37,0,0,0,7.23,1.47,19.06,19.06,0,0,0,17.6-11.73l5.55-13.51a127.23,127.23,0,0,0,38.87,0l5.55,13.51a18.95,18.95,0,0,0,24.83,10.27l19.8-8.17a19,19,0,0,0,10.27-24.83l-5.55-13.51a121.85,121.85,0,0,0,27.45-27.45l13.51,5.55a19.37,19.37,0,0,0,7.23,1.47A19.06,19.06,0,0,0,364,325.52l8.17-19.8A19.08,19.08,0,0,0,362,280.89ZM360.49,301l-8.17,19.8a6.51,6.51,0,0,1-6,4,6.21,6.21,0,0,1-2.41-.52l-18.12-7.54a6.29,6.29,0,0,0-7.65,2.3,110.75,110.75,0,0,1-31.22,31.22,6.25,6.25,0,0,0-2.3,7.65L292.18,376a6.44,6.44,0,0,1-3.46,8.38l-19.8,8.17a6.65,6.65,0,0,1-2.41.52,6.51,6.51,0,0,1-6-4L253,371a6.23,6.23,0,0,0-5.76-3.88,5.1,5.1,0,0,0-1.26.1,113.61,113.61,0,0,1-44.1,0,6.17,6.17,0,0,0-7,3.77l-7.54,18.12a6.51,6.51,0,0,1-6,4,6.21,6.21,0,0,1-2.41-.52l-19.8-8.17a6.23,6.23,0,0,1-3.46-3.46,6.66,6.66,0,0,1,0-4.92l7.54-18.12a6.29,6.29,0,0,0-2.3-7.65A113.54,113.54,0,0,1,129.69,319a6.25,6.25,0,0,0-7.65-2.3l-18.12,7.54a6.65,6.65,0,0,1-2.41.52,6.51,6.51,0,0,1-6-4L87.37,301a6.43,6.43,0,0,1,3.46-8.38L109,285.08a6.41,6.41,0,0,0,3.77-7,111.62,111.62,0,0,1,0-44.1,6.17,6.17,0,0,0-3.77-7L90.83,219.4a6.23,6.23,0,0,1-3.46-3.46,6.66,6.66,0,0,1,0-4.92l8.17-19.8a6.51,6.51,0,0,1,6-4,6.21,6.21,0,0,1,2.41.52L122,195.3a6.29,6.29,0,0,0,7.65-2.3,110.75,110.75,0,0,1,31.22-31.22,6.25,6.25,0,0,0,2.3-7.65L155.68,136a6.66,6.66,0,0,1,0-4.92,6.23,6.23,0,0,1,3.46-3.46l19.8-8.17a6.65,6.65,0,0,1,2.41-.52,6.51,6.51,0,0,1,6,4L194.86,141a6.41,6.41,0,0,0,7,3.77,113.61,113.61,0,0,1,44.1,0,6.17,6.17,0,0,0,7-3.77l7.54-18.12a6.51,6.51,0,0,1,6-4,6.21,6.21,0,0,1,2.41.52l19.8,8.17a6.23,6.23,0,0,1,3.46,3.46,6.66,6.66,0,0,1,0,4.92l-7.54,18.12a6.29,6.29,0,0,0,2.3,7.65A110.75,110.75,0,0,1,318.16,193a6.25,6.25,0,0,0,7.65,2.3l18.12-7.54a6.65,6.65,0,0,1,2.41-.52,6.51,6.51,0,0,1,6,4l8.17,19.8a6.66,6.66,0,0,1,0,4.92A6.23,6.23,0,0,1,357,219.4l-18.12,7.54a6.41,6.41,0,0,0-3.77,7,111.63,111.63,0,0,1,0,44.1,6.17,6.17,0,0,0,3.77,7L357,292.63A6.43,6.43,0,0,1,360.49,301Z"/>
			<path class="cls-1"
			      d="M282.44,231.76A63.06,63.06,0,0,0,224,192.68a62.35,62.35,0,0,0-24.2,4.82A63.27,63.27,0,0,0,224,319.24a62.35,62.35,0,0,0,24.2-4.82,63.27,63.27,0,0,0,34.26-82.66Zm-11.63,43.58a50.71,50.71,0,0,1-27.45,27.45A49.25,49.25,0,0,1,224,306.67a50.7,50.7,0,0,1-19.38-97.53A49.25,49.25,0,0,1,224,205.26a50.7,50.7,0,0,1,46.83,70.09Z"/>
		</g>
	</g>
</svg>