<svg xmlns="http://www.w3.org/2000/svg" viewBox="0 0 44 44">
	<defs>
		<style>.cls-1{fill:#0e2ec6;}</style>
	</defs>
	<g id="Слой_2" data-name="Слой 2">
		<g id="Слой_1-2" data-name="Слой 1">
			<circle class="cls-1" cx="22" cy="15" r="2"/>
			<path class="cls-1"
			      d="M22,0A22,22,0,1,0,44,22,21.94,21.94,0,0,0,22,0ZM32.8,29.6a14.56,14.56,0,0,1-8.1,4.9l-2.5.5h-.4l-2.5-.5a13.25,13.25,0,0,1-8.1-4.9,1.06,1.06,0,0,1,.1-1.4l1.6-1.3a1.06,1.06,0,0,1,1.4.1,10.49,10.49,0,0,0,5,3.3.49.49,0,0,0,.6-.3V26.5a.47.47,0,0,0-.5-.5H19a.94.94,0,0,1-1-1V23a.94.94,0,0,1,1-1h.5a.47.47,0,0,0,.5-.5V21a.55.55,0,0,0-.3-.5A5.9,5.9,0,0,1,16,15a6,6,0,0,1,12,0,5.9,5.9,0,0,1-3.7,5.5.55.55,0,0,0-.3.5v.5a.47.47,0,0,0,.5.5H25a.94.94,0,0,1,1,1v2a.94.94,0,0,1-1,1h-.5a.47.47,0,0,0-.5.5V30a.42.42,0,0,0,.6.3,9.42,9.42,0,0,0,5-3.3,1,1,0,0,1,1.4-.1l1.6,1.3A1,1,0,0,1,32.8,29.6Z"/>
		</g>
	</g>
</svg>