<svg id="Слой_2" data-name="Слой 2" xmlns="http://www.w3.org/2000/svg" viewBox="0 0 304.29 55.56">
	<defs>
		<style>.cls-1{fill:#fff;}.cls-2{isolation:isolate;}</style>
	</defs>
	<title>logo(last1)</title>
	<path class="cls-1"
	      d="M44,17.08,31.74,0h52.4a5.57,5.57,0,0,1,5.41,4.56,15.71,15.71,0,0,1-1.47,10C84.08,23.67,69.29,45,69.29,45S61.93,55.56,57.08,55.56s-10.25-12-10.25-12l2-3.7s4.13,6.41,8.26,6.55c4.86.17,16.66-17.94,16.66-17.94s4.7-7.12,3-11.1C75.65,14.85,44,17.08,44,17.08Z"/>
	<polygon class="cls-1" points="31.75 3.42 3.27 3.42 0 0 29.33 0 31.75 3.42"/>
	<polygon class="cls-1" points="41.71 17.08 18.93 17.08 15.66 13.67 39.29 13.67 41.71 17.08"/>
	<polyline class="cls-1" points="9.97 9.11 35.88 9.11 38.3 12.53 13.24 12.53"/>
	<polyline class="cls-1" points="5.41 4.56 32.46 4.56 34.88 7.97 8.69 7.97"/>
	<path class="cls-1"
	      d="M46.69,32.88c1.78-1.78,4.13-5.94,6.55-4.68s-.71,6.39,1.71,7.53,5.84-3.42,5.84-3.42,3.28-5.36,4.84-4.67-.14,2.92-.14,2.92-1.07,2.56.36,3.27,3.23-.45,3.23-.45l2.65-2,3-4.59s-1.84,2.82-3,2.39S70.16,26,71.3,25a2.73,2.73,0,0,0-.85-4.41c-3-1.49-9.73,9.06-11.72,8.92s.09-4.07.31-5.63a2.15,2.15,0,0,0-1.4-2.43C54.22,19.79,48.22,28,45.4,31c-.39.41-1.85,2.21-1,3.06S45.83,33.74,46.69,32.88Z"/>
	<g class="cls-2">
		<path class="cls-1"
		      d="M95.91,41.86h1.79a10.69,10.69,0,0,1,6.47,1.7,5.64,5.64,0,0,1,2.29,4.8q0,6.69-8.85,6.69H91.37V33.64H104.9v3.75h-9Zm0,9.48h1.52a6,6,0,0,0,3.37-.74,2.53,2.53,0,0,0,1.07-2.23,2.3,2.3,0,0,0-1.08-2.13,7.7,7.7,0,0,0-3.72-.65H95.91Z"/>
		<path class="cls-1"
		      d="M127.4,33.64l-6.62,15.15a16.46,16.46,0,0,1-2.34,4.1,6.82,6.82,0,0,1-2.59,1.85,9.67,9.67,0,0,1-3.63.61,12.71,12.71,0,0,1-3.41-.44V51a8.51,8.51,0,0,0,3.21.53,3.17,3.17,0,0,0,2-.56,4.12,4.12,0,0,0,1.25-2l-7.41-15.38h4.8l5.27,11.94H118l.26-.73,4.42-11.21Z"/>
		<path class="cls-1"
		      d="M144.89,40.32a6.55,6.55,0,0,1-2.16,5.29,9.24,9.24,0,0,1-6.15,1.83h-1.95v7.62H130.1V33.64h6.84a9.1,9.1,0,0,1,5.93,1.68A6.11,6.11,0,0,1,144.89,40.32Zm-10.25,3.4h1.49a5,5,0,0,0,3.13-.83,2.89,2.89,0,0,0,1-2.41,3,3,0,0,0-.87-2.36,4.08,4.08,0,0,0-2.73-.76h-2.07Z"/>
		<path class="cls-1" d="M161.27,55.06H148.93V33.64h12.33v3.72h-7.79v4.7h7.25v3.72h-7.25v5.52h7.79Z"/>
		<path class="cls-1"
		      d="M165.74,33.64h6.67q4.56,0,6.61,1.3a4.51,4.51,0,0,1,2.06,4.12,5.2,5.2,0,0,1-.9,3.15,3.6,3.6,0,0,1-2.4,1.48v.15a4.72,4.72,0,0,1,2.94,1.7,5.53,5.53,0,0,1,.9,3.31,5.45,5.45,0,0,1-2.12,4.57,9.16,9.16,0,0,1-5.75,1.64h-8Zm4.54,8.48h2.64a4.82,4.82,0,0,0,2.67-.57,2.13,2.13,0,0,0,.83-1.89,1.89,1.89,0,0,0-.9-1.76,5.79,5.79,0,0,0-2.85-.54h-2.39Zm0,3.6v5.58h3a4.39,4.39,0,0,0,2.77-.72,2.65,2.65,0,0,0,.89-2.2q0-2.67-3.81-2.67Z"/>
		<path class="cls-1" d="M198.23,55.06H185.89V33.64h12.33v3.72h-7.79v4.7h7.25v3.72h-7.25v5.52h7.79Z"/>
		<path class="cls-1"
		      d="M211.79,37.12a4.63,4.63,0,0,0-4,1.93,9,9,0,0,0-1.41,5.37q0,7.16,5.38,7.16a17,17,0,0,0,5.46-1.13v3.81a15.17,15.17,0,0,1-5.89,1.1q-4.67,0-7.15-2.83t-2.48-8.14A13.29,13.29,0,0,1,203,38.53a8.79,8.79,0,0,1,3.49-3.85,10.32,10.32,0,0,1,5.34-1.34,14.41,14.41,0,0,1,6.27,1.51l-1.46,3.69a24.25,24.25,0,0,0-2.42-1A7.21,7.21,0,0,0,211.79,37.12Z"/>
		<path class="cls-1" d="M230.07,55.06h-4.54V37.42h-5.82V33.64h16.17v3.78h-5.82Z"/>
		<path class="cls-1" d="M256.73,55.06h-4.53V45.82h-8.48v9.24h-4.54V33.64h4.54V42h8.48V33.64h4.53Z"/>
		<path class="cls-1"
		      d="M262.14,33.64h4.09V44l-.06,2.77L266,49.9h.09L276,33.64h5.43V55.06h-4V44.78q0-2.07.26-6.12h-.12L267.6,55.06h-5.46Z"/>
		<path class="cls-1" d="M304.29,55.06h-5.16l-7.76-10.85V55.06h-4.54V33.64h4.54V44l7.68-10.37h4.83l-7.81,10.28Z"/>
	</g>
	<g class="cls-2">
		<path class="cls-1"
		      d="M97.41,20.88A3.14,3.14,0,0,1,96.72,23a2.44,2.44,0,0,1-1.93.79A2.47,2.47,0,0,1,92.84,23a3.17,3.17,0,0,1-.69-2.18,3.13,3.13,0,0,1,.69-2.16,2.49,2.49,0,0,1,2-.77,2.43,2.43,0,0,1,1.92.78A3.14,3.14,0,0,1,97.41,20.88Zm-4.55,0a2.71,2.71,0,0,0,.49,1.76,1.75,1.75,0,0,0,1.44.6,1.74,1.74,0,0,0,1.43-.6,2.75,2.75,0,0,0,.48-1.76,2.73,2.73,0,0,0-.48-1.75,1.73,1.73,0,0,0-1.43-.6,1.76,1.76,0,0,0-1.44.6A2.68,2.68,0,0,0,92.86,20.88Z"/>
		<path class="cls-1" d="M100.36,23.74H99.7V18.62H97.89V18h4.28v.59h-1.81Z"/>
		<path class="cls-1" d="M107.06,23.74h-.8l-2.64-2.89v2.89H103V18h.66v2.77L106.19,18H107l-2.53,2.77Z"/>
		<path class="cls-1"
		      d="M111.39,19.69a1.6,1.6,0,0,1-.59,1.33,2.68,2.68,0,0,1-1.69.47h-.67v2.25h-.66V18h1.48Q111.39,18,111.39,19.69Zm-3,1.23h.6a2.22,2.22,0,0,0,1.28-.29,1.05,1.05,0,0,0,.39-.91,1,1,0,0,0-.37-.84,1.94,1.94,0,0,0-1.16-.28h-.74Z"/>
		<path class="cls-1"
		      d="M112.5,23.74V18h.66v2.44h.93a2.57,2.57,0,0,1,1.55.4,1.41,1.41,0,0,1,.54,1.21,1.53,1.53,0,0,1-.51,1.23,2.23,2.23,0,0,1-1.48.43Zm.66-.57h1a1.61,1.61,0,0,0,1-.28,1,1,0,0,0,.33-.82.87.87,0,0,0-.35-.78,2,2,0,0,0-1.13-.24h-.86Zm4.59.57h-.66V18h.66Z"/>
		<path class="cls-1" d="M121,23.74h-.66V18.62h-1.81V18h4.28v.59H121Z"/>
		<path class="cls-1"
		      d="M128.55,20.88a3.14,3.14,0,0,1-.69,2.16,2.44,2.44,0,0,1-1.93.79A2.47,2.47,0,0,1,124,23a3.17,3.17,0,0,1-.69-2.18,3.13,3.13,0,0,1,.69-2.16,2.49,2.49,0,0,1,2-.77,2.43,2.43,0,0,1,1.92.78A3.14,3.14,0,0,1,128.55,20.88Zm-4.55,0a2.71,2.71,0,0,0,.49,1.76,1.75,1.75,0,0,0,1.44.6,1.74,1.74,0,0,0,1.43-.6,2.75,2.75,0,0,0,.48-1.76,2.73,2.73,0,0,0-.48-1.75,1.73,1.73,0,0,0-1.43-.6,1.76,1.76,0,0,0-1.44.6A2.68,2.68,0,0,0,124,20.88Z"/>
		<path class="cls-1" d="M132.93,23.74h-3.18V18h3.18v.59h-2.52v1.84h2.37V21h-2.37v2.1h2.52Z"/>
		<path class="cls-1"
		      d="M139.7,23.74,139,21.92H136.7l-.7,1.82h-.67L137.58,18h.56l2.25,5.73Zm-.92-2.41-.66-1.77c-.09-.22-.17-.5-.27-.82a7.35,7.35,0,0,1-.25.82l-.67,1.77Z"/>
		<path class="cls-1" d="M145.2,23.74h-.8l-2.64-2.89v2.89h-.66V18h.66v2.77L144.33,18h.76l-2.53,2.77Z"/>
		<path class="cls-1" d="M150.17,23.14h.67v2.09h-.63V23.74h-4.3V18h.66v5.11h2.93V18h.66Z"/>
		<path class="cls-1"
		      d="M151.73,18h.62v3.18q0,.88-.05,1.59h0l3.2-4.77h.73v5.71h-.62V20.6q0-.79.07-1.65h0l-3.21,4.79h-.73Z"/>
		<path class="cls-1"
		      d="M162.7,20.88A3.14,3.14,0,0,1,162,23a2.44,2.44,0,0,1-1.93.79,2.47,2.47,0,0,1-1.95-.77,3.17,3.17,0,0,1-.69-2.18,3.13,3.13,0,0,1,.69-2.16,2.49,2.49,0,0,1,2-.77,2.43,2.43,0,0,1,1.92.78A3.14,3.14,0,0,1,162.7,20.88Zm-4.55,0a2.71,2.71,0,0,0,.49,1.76,1.76,1.76,0,0,0,1.44.6,1.74,1.74,0,0,0,1.43-.6,2.75,2.75,0,0,0,.48-1.76,2.72,2.72,0,0,0-.48-1.75,1.73,1.73,0,0,0-1.43-.6,1.76,1.76,0,0,0-1.44.6A2.68,2.68,0,0,0,158.15,20.88Z"/>
		<path class="cls-1" d="M168.23,23.74h-.66V21.05h-3v2.69h-.66V18h.66v2.43h3V18h.66Z"/>
		<path class="cls-1" d="M172.9,23.74h-3.18V18h3.18v.59h-2.52v1.84h2.37V21h-2.37v2.1h2.52Z"/>
		<path class="cls-1"
		      d="M177.7,19.69a1.6,1.6,0,0,1-.59,1.33,2.68,2.68,0,0,1-1.69.47h-.67v2.25h-.66V18h1.48Q177.7,18,177.7,19.69Zm-3,1.23h.6a2.22,2.22,0,0,0,1.28-.29,1.05,1.05,0,0,0,.39-.91,1,1,0,0,0-.37-.84,1.94,1.94,0,0,0-1.16-.28h-.74Z"/>
		<path class="cls-1" d="M183.15,23.74h-.66V21.05h-3v2.69h-.66V18h.66v2.43h3V18h.66Z"/>
		<path class="cls-1"
		      d="M189.6,20.88A3.15,3.15,0,0,1,188.9,23a2.44,2.44,0,0,1-1.93.79A2.47,2.47,0,0,1,185,23a3.17,3.17,0,0,1-.69-2.18,3.13,3.13,0,0,1,.69-2.16,2.49,2.49,0,0,1,2-.77,2.43,2.43,0,0,1,1.92.78A3.14,3.14,0,0,1,189.6,20.88Zm-4.55,0a2.71,2.71,0,0,0,.49,1.76,2,2,0,0,0,2.87,0,2.75,2.75,0,0,0,.48-1.76,2.73,2.73,0,0,0-.48-1.75,1.73,1.73,0,0,0-1.43-.6,1.76,1.76,0,0,0-1.44.6A2.68,2.68,0,0,0,185,20.88Z"/>
		<path class="cls-1" d="M194,23.74h-3.18V18H194v.59h-2.52v1.84h2.37V21h-2.37v2.1H194Z"/>
		<path class="cls-1"
		      d="M202.12,20.88a3.15,3.15,0,0,1-.69,2.16,2.44,2.44,0,0,1-1.93.79,2.47,2.47,0,0,1-1.95-.77,3.17,3.17,0,0,1-.69-2.18,3.13,3.13,0,0,1,.69-2.16,2.49,2.49,0,0,1,2-.77,2.43,2.43,0,0,1,1.92.78A3.14,3.14,0,0,1,202.12,20.88Zm-4.55,0a2.71,2.71,0,0,0,.49,1.76,2,2,0,0,0,2.87,0,2.75,2.75,0,0,0,.48-1.76,2.73,2.73,0,0,0-.48-1.75,1.73,1.73,0,0,0-1.43-.6,1.76,1.76,0,0,0-1.44.6A2.68,2.68,0,0,0,197.56,20.88Z"/>
		<path class="cls-1"
		      d="M207,22.08a1.51,1.51,0,0,1-.51,1.26,2.41,2.41,0,0,1-1.53.41h-1.67V18h3.37v.59H204v1.85h.89a3.6,3.6,0,0,1,1.23.17,1.38,1.38,0,0,1,.7.51A1.64,1.64,0,0,1,207,22.08Zm-3,1.09h.93a1.82,1.82,0,0,0,1.08-.25,1,1,0,0,0,.34-.84.88.88,0,0,0-.34-.79,2.24,2.24,0,0,0-1.2-.23H204Z"/>
		<path class="cls-1" d="M208.13,23.74V18h.66v5.11h2.28V18h.67v5.11H214V18h.66v5.11h.67v2.09h-.63V23.74Z"/>
		<path class="cls-1" d="M219.5,23.74h-3.18V18h3.18v.59H217v1.84h2.37V21H217v2.1h2.52Z"/>
		<path class="cls-1"
		      d="M223.13,18.54a1.87,1.87,0,0,0-1.49.63,2.53,2.53,0,0,0-.54,1.72,2.58,2.58,0,0,0,.53,1.73,1.87,1.87,0,0,0,1.5.61,5.1,5.1,0,0,0,1.36-.21v.58a4.2,4.2,0,0,1-1.46.22,2.48,2.48,0,0,1-1.95-.77,3.15,3.15,0,0,1-.69-2.18,3.44,3.44,0,0,1,.33-1.55,2.38,2.38,0,0,1,1-1,2.89,2.89,0,0,1,1.47-.36,3.54,3.54,0,0,1,1.57.33l-.28.57A3,3,0,0,0,223.13,18.54Z"/>
		<path class="cls-1" d="M227.41,23.74h-.66V18.62h-1.81V18h4.28v.59h-1.81Z"/>
		<path class="cls-1"
		      d="M230,18h1.61a3,3,0,0,1,1.64.34,1.2,1.2,0,0,1,.51,1.07,1.24,1.24,0,0,1-.28.84,1.36,1.36,0,0,1-.83.43v0q1.3.22,1.3,1.37a1.47,1.47,0,0,1-.52,1.2,2.2,2.2,0,0,1-1.45.43h-2Zm.66,2.45h1.09a1.78,1.78,0,0,0,1-.22.85.85,0,0,0,.31-.74.75.75,0,0,0-.34-.69,2.15,2.15,0,0,0-1.09-.21h-1Zm0,.56v2.14h1.19a1.69,1.69,0,0,0,1-.27,1,1,0,0,0,.35-.84.89.89,0,0,0-.36-.78A1.91,1.91,0,0,0,231.8,21Z"/>
		<path class="cls-1"
		      d="M240.06,20.88a3.14,3.14,0,0,1-.69,2.16,2.44,2.44,0,0,1-1.93.79,2.47,2.47,0,0,1-1.95-.77,3.17,3.17,0,0,1-.69-2.18,3.13,3.13,0,0,1,.69-2.16,2.49,2.49,0,0,1,2-.77,2.43,2.43,0,0,1,1.92.78A3.14,3.14,0,0,1,240.06,20.88Zm-4.55,0a2.71,2.71,0,0,0,.49,1.76,1.76,1.76,0,0,0,1.44.6,1.74,1.74,0,0,0,1.43-.6,2.75,2.75,0,0,0,.48-1.76,2.72,2.72,0,0,0-.48-1.75,1.73,1.73,0,0,0-1.43-.6,1.76,1.76,0,0,0-1.44.6A2.68,2.68,0,0,0,235.51,20.88Z"/>
	</g>
	<g class="cls-2">
		<path class="cls-1"
		      d="M253.76,13.9A3,3,0,0,1,251.09,17V17q2.92.62,2.92,3.13a3.32,3.32,0,0,1-1.24,2.76,5.52,5.52,0,0,1-3.51,1,7.67,7.67,0,0,1-3.58-.76v-.91a8.45,8.45,0,0,0,1.78.62,8,8,0,0,0,1.79.22,4.53,4.53,0,0,0,2.77-.76,2.51,2.51,0,0,0,1-2.13,2.3,2.3,0,0,0-1-2,5.21,5.21,0,0,0-3-.69h-1.91v-.84h2a4.41,4.41,0,0,0,2.75-.7,2.4,2.4,0,0,0,.89-2,2.15,2.15,0,0,0-.81-1.76,3.27,3.27,0,0,0-2.12-.66,5.59,5.59,0,0,0-1.79.28,7,7,0,0,0-1.77,1l-.51-.7a6.53,6.53,0,0,1,4.07-1.35,4.33,4.33,0,0,1,2.84.86A2.86,2.86,0,0,1,253.76,13.9Z"/>
		<path class="cls-1"
		      d="M263,19.21h-5.22L256,23.74h-1l5.17-12.9h.57l5.06,12.9h-1Zm-4.9-.81h4.6L261,13.76q-.22-.54-.53-1.51a14.09,14.09,0,0,1-.52,1.53Z"/>
		<path class="cls-1"
		      d="M267.64,10.89h3.52a6,6,0,0,1,3.5.81,2.82,2.82,0,0,1,1.12,2.44A2.65,2.65,0,0,1,275.1,16a3.32,3.32,0,0,1-2,1V17a3.89,3.89,0,0,1,2.26,1A2.84,2.84,0,0,1,276.1,20a3.32,3.32,0,0,1-1.18,2.73,5.17,5.17,0,0,1-3.34,1h-3.94Zm.9,5.72h2.83A4.51,4.51,0,0,0,274,16a2.18,2.18,0,0,0,.82-1.88,2,2,0,0,0-.93-1.86,5.29,5.29,0,0,0-2.76-.58h-2.59Zm0,.79v5.55h3q3.57,0,3.57-2.9,0-2.65-3.76-2.65Z"/>
		<path class="cls-1"
		      d="M289.73,17.3a7.18,7.18,0,0,1-1.53,4.84,5.88,5.88,0,0,1-8.43,0,7.21,7.21,0,0,1-1.53-4.86,7.08,7.08,0,0,1,1.54-4.83A5.31,5.31,0,0,1,284,10.69a5.26,5.26,0,0,1,4.21,1.77A7.19,7.19,0,0,1,289.73,17.3Zm-10.51,0a6.58,6.58,0,0,0,1.23,4.27,4.93,4.93,0,0,0,7.08,0,6.59,6.59,0,0,0,1.23-4.28A6.52,6.52,0,0,0,287.53,13a4.94,4.94,0,0,0-7.07,0A6.46,6.46,0,0,0,279.22,17.3Z"/>
		<path class="cls-1"
		      d="M302.08,27h-.86V23.74h-9.36V27H291V22.9h.92a25.51,25.51,0,0,0,2.29-5.73,27.39,27.39,0,0,0,1.1-6.27h5.47v12h1.32Zm-2.23-4.09V11.73h-3.78a31,31,0,0,1-1.11,6,22.86,22.86,0,0,1-2,5.19Z"/>
	</g>
</svg>