<svg id="Слой_2" data-name="Слой 2" xmlns="http://www.w3.org/2000/svg" viewBox="0 0 304.63 63.85">
	<defs>
		<style>.cls-1,.cls-2{fill:#fff;}.cls-2{font-size:30px;font-family:OpenSans-Bold, Open
			Sans;font-weight:700;letter-spacing:0em;}.cls-3{fill: white; font-size:8px;font-family:OpenSans-Regular, Open
			Sans;letter-spacing:-0.01em;}.cls-4{fill: white; font-size:18px;font-family:OpenSans-Light, Open Sans;letter-spacing:0em;}
		</style>
	</defs>
	<path class="cls-1"
	      d="M43.91,17.52,31.66.44H84.06A5.57,5.57,0,0,1,89.47,5,15.71,15.71,0,0,1,88,15c-4,9.11-18.79,30.47-18.79,30.47S61.85,56,57,56,46.75,44,46.75,44l2-3.7s4.13,6.41,8.26,6.55c4.86.17,16.66-17.94,16.66-17.94s4.7-7.12,3-11.1C75.57,15.29,43.91,17.52,43.91,17.52Z"
	      transform="translate(0.08 -0.44)"/>
	<polygon class="cls-1" points="31.75 3.42 3.27 3.42 0 0 29.33 0 31.75 3.42"/>
	<polygon class="cls-1" points="41.71 17.08 18.93 17.08 15.66 13.67 39.29 13.67 41.71 17.08"/>
	<polyline class="cls-1" points="9.97 9.11 35.88 9.11 38.3 12.53 13.24 12.53"/>
	<polyline class="cls-1" points="5.41 4.56 32.46 4.56 34.88 7.97 8.69 7.97"/>
	<path class="cls-1"
	      d="M46.61,33.32c1.78-1.78,4.13-5.94,6.55-4.68s-.71,6.39,1.71,7.53,5.84-3.42,5.84-3.42,3.28-5.36,4.84-4.67S65.41,31,65.41,31s-1.07,2.56.36,3.27S69,33.82,69,33.82l2.65-2,3-4.59s-1.84,2.82-3,2.39-1.57-3.13-.43-4.13a2.73,2.73,0,0,0-.85-4.41c-3-1.49-9.73,9.06-11.72,8.92s.09-4.07.31-5.63a2.15,2.15,0,0,0-1.4-2.43c-3.42-1.71-9.42,6.53-12.24,9.47-.39.41-1.85,2.21-1,3.06S45.75,34.18,46.61,33.32Z"
	      transform="translate(0.08 -0.44)"/>
	<text class="cls-2" transform="translate(88.67 55.06)">БУРЕВЕСТНИК</text>
	<text class="cls-3" transform="translate(91.67 23.74)">ОТКРЫТОЕ АКЦИОНЕРНОЕ ОБЩЕСТВО</text>
	<text class="cls-4" transform="translate(244.96 23.74)">ЗАВОД</text>
</svg>