<svg xmlns="http://www.w3.org/2000/svg" viewBox="0 0 89.81 55.56">
	<defs>
		<style>.cls-1{fill:#0e2ec6;}</style>
	</defs>
	<g id="Слой_2" data-name="Слой 2">
		<g id="Слой_2-2" data-name="Слой 2">
			<path class="cls-1"
			      d="M44,17.08,31.74,0h52.4a5.57,5.57,0,0,1,5.41,4.56,15.71,15.71,0,0,1-1.47,10C84.08,23.67,69.29,45,69.29,45S61.93,55.56,57.08,55.56s-10.25-12-10.25-12l2-3.7s4.13,6.41,8.26,6.55c4.86.17,16.66-17.94,16.66-17.94s4.7-7.12,3-11.1C75.65,14.85,44,17.08,44,17.08Z"/>
			<polygon class="cls-1" points="31.75 3.42 3.27 3.42 0 0 29.33 0 31.75 3.42"/>
			<polygon class="cls-1" points="41.71 17.08 18.93 17.08 15.66 13.67 39.29 13.67 41.71 17.08"/>
			<polyline class="cls-1" points="9.97 9.11 35.88 9.11 38.3 12.53 13.24 12.53"/>
			<polyline class="cls-1" points="5.41 4.56 32.46 4.56 34.88 7.97 8.69 7.97"/>
			<path class="cls-1"
			      d="M46.69,32.88c1.78-1.78,4.13-5.94,6.55-4.68s-.71,6.39,1.71,7.53,5.84-3.42,5.84-3.42,3.28-5.36,4.84-4.67-.14,2.92-.14,2.92-1.07,2.56.36,3.27,3.23-.45,3.23-.45l2.65-2,3-4.59s-1.84,2.82-3,2.39S70.16,26,71.3,25a2.73,2.73,0,0,0-.85-4.41c-3-1.49-9.73,9.06-11.72,8.92s.09-4.07.31-5.63a2.15,2.15,0,0,0-1.4-2.43C54.22,19.79,48.22,28,45.4,31c-.39.41-1.85,2.21-1,3.06S45.83,33.74,46.69,32.88Z"/>
		</g>
	</g>
</svg>