<svg xmlns="http://www.w3.org/2000/svg" viewBox="0 0 512 511.87">
	<defs>
		<style>.cls-1{fill:#fff;}</style>
	</defs>
	<g id="Слой_2" data-name="Слой 2">
		<g id="Capa_1" data-name="Capa 1">
			<path class="cls-1"
			      d="M502.13,445.94l-73.8-73.65a34.35,34.35,0,0,0-25.92-9.89l-35.51-35.51c60.46-79.94,54.32-194.27-18.51-267.17-79.64-79.64-208.88-79.64-288.52.15-79.79,79.79-79.79,208.88-.15,288.53,72.9,72.9,187.23,79,267.17,18.51l35.51,35.51a34.35,34.35,0,0,0,9.89,25.92L445.94,502a33.91,33.91,0,0,0,47.87,0l8.17-8.17A33.78,33.78,0,0,0,502.13,445.94ZM304.26,304.26c-55.29,55.29-145.12,55.44-200.42.15S48.55,159.43,104,104c55.29-55.29,145.12-55.44,200.42-.15S359.48,248.82,304.26,304.26Z"/>
			<path class="cls-1"
			      d="M259.6,182.81H226.19V149.4a21.74,21.74,0,0,0-21.65-21.8h-.22a21.74,21.74,0,0,0-21.65,21.8v33.42H149.25a21.74,21.74,0,0,0-21.8,21.65v.15a21.74,21.74,0,0,0,21.8,21.65h33.42v33.42a21.74,21.74,0,0,0,21.65,21.8h.15a21.74,21.74,0,0,0,21.65-21.8V226.27h33.42a21.74,21.74,0,0,0,21.8-21.65v-.15A21.54,21.54,0,0,0,259.6,182.81Z"/>
		</g>
	</g>
</svg>