<svg xmlns="http://www.w3.org/2000/svg" viewBox="0 0 60 57">
	<defs>
		<style>.cls-1{fill:#999;}</style>
	</defs>
	<g id="Слой_2" data-name="Слой 2">
		<g id="Capa_1" data-name="Capa 1">
			<path class="cls-1" d="M30,0C13.46,0,0,12.11,0,27A25,25,0,0,0,4.77,41.6C4.18,48.14,2.59,53,.29,55.29A1,1,0,0,0,1,57h.14c.4-.06,9.81-1.41,16.62-5.34A32.55,32.55,0,0,0,30,54c16.54,0,30-12.11,30-27S46.54,0,30,0ZM16,31a4,4,0,1,1,4-4A4,4,0,0,1,16,31Zm14,0a4,4,0,1,1,4-4A4,4,0,0,1,30,31Zm14,0a4,4,0,1,1,4-4A4,4,0,0,1,44,31Z"/>
		</g>
	</g>
</svg>