<svg xmlns="http://www.w3.org/2000/svg" viewBox="0 0 512 512">
	<defs>
		<style>.cls-1{fill:#fff;}</style>
	</defs>
	<g id="Слой_2" data-name="Слой 2">
		<g id="Capa_1" data-name="Capa 1">
			<path class="cls-1"
			      d="M411.5,512c-21.3,0-47-5.34-75.33-16-62-23.39-129.52-69.61-190-130.12S39.39,237.82,16,175.79C-5.28,119.39-5.33,73.1,15.86,51.92c3-3,6.15-6.32,9.35-9.7C44.56,21.89,66.41-1,95.37,0c20,.83,39.3,13.23,59.1,37.87,58.52,72.78,32.13,98.71,1.6,128.78L150.69,172c-5,5-14.43,28.12,73.36,115.92,28.66,28.66,53.09,49.63,72.62,62.32,12.3,8,34.29,20.08,43.31,11.06l5.42-5.48c30-30.46,56-56.76,128.69,1.7,24.64,19.8,37,39.13,37.85,59.12,1.19,28.95-21.87,50.85-42.23,70.18-3.36,3.2-6.63,6.3-9.68,9.33C449.53,506.71,432.7,512,411.5,512ZM93.31,17.22c-20.58,0-39.16,19.56-55.61,36.87-3.31,3.48-6.51,6.85-9.66,10C12.25,79.87,13.85,121.32,32.1,169.73c22.56,59.79,67.39,125.13,126.23,184S282.46,457.34,342.27,479.88c48.41,18.29,89.86,19.84,105.62,4.08,3.15-3.15,6.53-6.35,10-9.64,17.69-16.81,37.75-35.85,36.87-57-.6-14.52-11.18-30.14-31.43-46.41-60.6-48.74-77.55-31.53-105.65-3l-5.51,5.56c-13.43,13.45-35.25,10.47-64.87-8.78-20.54-13.36-45.93-35.1-75.41-64.6C139,227.23,115.73,182.65,138.53,159.79l5.49-5.42c28.57-28.1,45.81-45.07-2.94-105.7-16.31-20.23-31.91-30.81-46.43-31.43C94.2,17.22,93.76,17.22,93.31,17.22Z"/>
		</g>
	</g>
</svg>