<svg xmlns="http://www.w3.org/2000/svg" viewBox="0 0 511.97 512">
	<defs>
		<style>.cls-1{fill:#fff;}</style>
	</defs>
	<g id="Слой_2" data-name="Слой 2">
		<g id="Capa_1" data-name="Capa 1">
			<path class="cls-1"
			      d="M342.41,159.09c0-.12,0-.24,0-.35-.09-1.25-.19-2.5-.31-3.75l0-.25q-.19-1.92-.42-3.85l0-.22a171.54,171.54,0,0,0-7-32c-.11-.33-.22-.66-.33-1-.76-2.3-1.56-4.59-2.42-6.87-.22-.58-.45-1.16-.68-1.73s-.55-1.43-.84-2.15c-.14-.35-.29-.69-.44-1-.92-2.23-1.88-4.44-2.9-6.63l-.11-.24q-2.6-5.58-5.62-11c-.22-.4-.45-.79-.68-1.18-.47-.83-.94-1.66-1.43-2.49l-.31-.51A170.84,170.84,0,0,0,307.69,67.4q-.76-1-1.54-2a172.8,172.8,0,0,0-13.51-15.21,170.63,170.63,0,0,0-76.4-44.28q-2-.54-4-1a172.3,172.3,0,0,0-81.62,0q-2,.49-4,1A172,172,0,0,0,23.73,84.32Q21.57,88,19.61,91.7a170.26,170.26,0,0,0-10,23q-1.37,3.93-2.55,7.9a171.69,171.69,0,0,0-5.3,24.2c-.22,1.49-.41,3-.58,4.48q-.46,3.89-.74,7.8Q.29,161.14.2,163.2q-.39,8.22,0,16.45.1,2.05.25,4.11a171.12,171.12,0,0,0,19.17,67.39q2.94,5.6,6.32,11a171.47,171.47,0,0,0,18.19,24.08q2.94,3.26,6.08,6.39t6.16,5.86q6.06,5.49,12.49,10.3A170.61,170.61,0,0,0,87.51,321c.82.46,1.65.91,2.48,1.36,1.81,1,3.62,1.93,5.46,2.83q6.56,3.24,13.32,5.88,1.54.6,3.09,1.18,2.85,1.05,5.73,2l1.43.47q3.6,1.15,7.24,2.14l.35.1c.9.24,1.81.47,2.71.7l1.29.33q1.94.47,3.9.9l.13,0,1.3.27c3.61.76,7.24,1.41,10.88,1.94s7.32.92,11,1.22l1.28.11a172.71,172.71,0,0,0,19.09.3l1.46-.05a172,172,0,0,0,24.45-2.93h.07q5.83-1.13,11.59-2.67l.49-.13a170.54,170.54,0,0,0,34.27-13.36l.63-.32q3.59-1.89,7.11-4l.27-.16q6.89-4.07,13.46-8.84l.8-.57q6.75-5,13.1-10.67l.36-.32q3.26-2.94,6.39-6.08h0l0,0q1.55-1.55,3-3.13h0q1.52-1.6,3-3.22l.38-.43A171,171,0,0,0,342.41,159.09Zm-84,99.31a123,123,0,1,1,36-87A122.2,122.2,0,0,1,258.4,258.4Z"/>
			<path class="cls-1" d="M237.08,105.77a92.85,92.85,0,1,0,27.2,65.66A92.57,92.57,0,0,0,237.08,105.77Z"/>
			<path class="cls-1"
			      d="M493.06,401.63,352.18,260.75a202.48,202.48,0,0,1-91.43,91.43L401.63,493.06a64.65,64.65,0,1,0,91.43-91.43Z"/>
		</g>
	</g>
</svg>